<?xml version="1.0" encoding="UTF-8"?>
<svg id="Layer_2" data-name="Layer 2" xmlns="http://www.w3.org/2000/svg" viewBox="0 0 3600.99 1434.81">
  <defs>
    <style>
      .cls-1 {
        fill: #05230f;
      }

      .cls-1, .cls-2 {
        stroke-width: 0px;
      }

      .cls-2 {
        fill: #011604;
      }
    </style>
  </defs>
  <g id="_1" data-name="1">
    <path class="cls-2" d="m2147.91,1320.47c-3.44-7.22,63.69-19.58,67.15-68.02,0,0-38.18,16.45-42.48,9.44-4.29-7.01,60.11-43.45,80.74-101.34-7.36,8.06-58.04,24.7-61.74,17.63s31.44-16.66,52.13-79.26c-11,8.25-35.53,13.05-40.53,7.91-5-5.14,23.39-18.46,28.42-26.93-5.74,2.57-17.8,2.36-17.33-4.72.47-7.08,34.59-15.83,47.24-40.81-9.14,6.25-33.89,5.41-34.67-1.25-.78-6.66,22.72-8.75,41.31-48.45-9.06,9.44-54.14,18.18-57.21,13.05s36.06-16.55,43.67-50.8c-4.33,4.48-24.48,8.57-25.42,2.36-.94-6.21,19.71-6.13,42.62-54.42,22.61-47.66,24.34-132.02,32.2-132.02s5.05,50.19,18.4,82.88c13.35,32.69,35.95,40.39,33.5,44.98-2.45,4.58-15.75,3.03-22.49.42,4.53,50.25,38.26,53.72,36.7,60.11s-21.75,5.8-26.94,5.55c3.97,5.58,14.05,11.08,12.29,15.14-1.76,4.06-16.27.83-19.24.83,9.37,20.55,29.1,25.4,28.22,30.12-.89,4.72-14.86,6.01-21.77,3.3,14.06,31.96,57.22,39.21,58.68,46.44s-14.06,10.93-35.29,8.29c7.18,38.25,49.97,45.4,48.1,53.45-1.87,8.05-36.47,8.33-51.22,0-1.87,47.76,65.56,48.72,62.28,58.72-3.28,10-28.14,6.94-33.73,6.25,14.55,28.6,41.67,22.9,40.76,31.24-.91,8.33-36.43,8.12-50.45-.2,20.8,52.2,77.36,61.84,75.75,69.34-1.61,7.5-41.43,1.25-50.8-.83,14.06,27.9,43.78,30.4,41.31,37.76s-81.61,6.23-147.04,4.44c-64.03-1.75-149.68,6.66-153.12-.56Z"/>
    <path class="cls-1" d="m1154.94,1141.69c-4.12-8.67,76.46-23.5,80.62-81.67,0,0-45.84,19.75-51,11.33-5.16-8.42,72.17-52.16,96.93-121.67-8.83,9.67-69.68,29.66-74.12,21.16s37.75-20,62.59-95.16c-13.2,9.9-42.65,15.67-48.65,9.5-6-6.17,28.08-22.17,34.12-32.33-6.89,3.08-21.37,2.83-20.81-5.67s41.53-19,56.72-49c-10.97,7.5-40.69,6.5-41.62-1.5s27.28-10.5,49.59-58.17c-10.87,11.33-65,21.82-68.68,15.66-3.69-6.16,43.29-19.86,52.43-60.99-5.2,5.38-29.39,10.29-30.51,2.83-1.12-7.46,23.66-7.36,51.17-65.34,27.15-57.21,29.22-158.5,38.66-158.5s6.06,60.25,22.09,99.5,43.16,48.5,40.22,54-18.9,3.63-27,.5c5.44,60.33,45.94,64.5,44.06,72.17s-26.11,6.96-32.34,6.67c4.77,6.7,16.87,13.3,14.76,18.17s-19.54.99-23.1.99c11.25,24.67,34.94,30.49,33.87,36.16s-17.84,7.21-26.14,3.96c16.87,38.38,68.7,47.08,70.45,55.75,1.75,8.67-16.87,13.12-42.37,9.96,8.62,45.92,60,54.5,57.75,64.17-2.25,9.67-43.78,10-61.5,0-2.25,57.33,78.71,58.5,74.77,70.5-3.94,12-33.78,8.33-40.5,7.5,17.47,34.34,50.02,27.5,48.94,37.5-1.09,10-43.73,9.75-60.57-.25,24.97,62.67,92.88,74.24,90.94,83.25s-49.74,1.5-60.99-1c16.87,33.5,52.56,36.5,49.59,45.33-2.96,8.84-97.98,7.48-176.53,5.33-76.87-2.1-179.71,8-183.83-.67Z"/>
    <path class="cls-1" d="m3453.45,712.19c-82.23,1-144.93,4.03-144.95-3.89-.01-7.92,51.99-5.58,67.96-36.95-13.96,3.44-48.86,13.09-51.88,6.99-3.02-6.09,18.65-9.85,37.59-30.73,18.93-20.88,23.7-36.95,23.7-36.95,0,0-44.76,24.76-49.15,19.97-4.39-4.8,33.98-29.44,46.26-46.67-7.86,4.38-27.2,7.45-27.87.91-.67-6.55,23.49-15.04,26.68-29.3-12.14,4.86-42.66,5.06-42.44-4.57.22-9.63,45.9-3.21,68.83-75.28-15.63,13.54-56.41,25.79-60.94,18.89-4.53-6.9,49.25-25,48.7-76.59-21.09,10.46-48.68,6.17-49.51,1.17s32.02-7.62,39.6-29.04c-9.64,7.38-24.59,8.74-26.66,4.59-2.08-4.15,14.65-10.97,28.01-32.08,13.35-21.11,22.15-70.14,22.15-70.14,0,0-31.57,33.18-35.6,27.74-4.03-5.45,19.13-28.39,30.2-61.45,11.07-33.06,15.97-53.41,21.51-53.41s7.72,45.25,21.14,67.29c13.42,22.04,35.52,32.68,34.57,36.82-.95,4.14-15.4,2.01-23.1-2.86,6.01,17.4,24.03,22.36,23.74,28-.28,5.64-21.07,5.07-21.07,5.07,0,0-1.4,15.68,13.54,27.61,14.94,11.93,27.63,12.42,28.03,16.85.4,4.43-10.93,6.1-19.99,6.36,10.57,30.99,34.83,30.26,36.03,35.9,1.2,5.64-16.52,10.31-28.8,7.01,14.07,29.29,49.8,18.47,52.64,26.25,2.84,7.78-27.86,15.23-49.62,11.35,8.53,11.92,26.01,11.67,26.99,15.81.98,4.14-11.93,7.26-23.24,5.9,13.64,30.66,60.21,29.38,62.03,35.6,1.82,6.22-27.38,8.81-33.92,7.64,6.54,24.11,38.55,34,36.91,39.61-1.64,5.61-24.22,5.82-40.69-.8,8.05,23.92,46.57,36.13,44.22,39.89s-17.28,3.24-23.99,2.2c10.74,35.78,55.04,45.05,49.33,50.5-5.71,5.45-27.69,1.17-38.23-1.09-4.81,29.1,44.77,37.85,40.74,46.02-4.03,8.17-57.21-1.12-139.44-.12Z"/>
    <path class="cls-2" d="m186.33,919.57C80.63,920.86.01,924.75,0,914.57c-.01-10.18,66.83-7.18,87.36-47.5-17.94,4.42-62.81,16.82-66.69,8.99-3.88-7.83,23.98-12.66,48.32-39.5,24.34-26.84,30.47-47.5,30.47-47.5,0,0-57.54,31.83-63.19,25.67s43.68-37.84,59.47-60c-10.11,5.62-34.97,9.58-35.83,1.17-.86-8.42,30.2-19.33,34.3-37.67-15.61,6.25-54.84,6.5-54.56-5.88.28-12.38,59-4.12,88.49-96.78-20.1,17.41-72.51,33.16-78.34,24.28-5.82-8.88,63.32-32.14,62.6-98.46-27.11,13.45-62.58,7.94-63.64,1.51s41.16-9.8,50.91-37.33c-12.39,9.49-31.61,11.24-34.28,5.91-2.67-5.33,18.84-14.1,36-41.24,17.17-27.14,28.47-90.17,28.47-90.17,0,0-40.59,42.66-45.77,35.66s24.59-36.5,38.83-79,20.53-68.66,27.65-68.66,9.92,58.17,27.18,86.5c17.26,28.33,45.66,42.01,44.44,47.33-1.22,5.32-19.79,2.58-29.7-3.68,7.73,22.36,30.89,28.75,30.52,36s-27.09,6.52-27.09,6.52c0,0-1.79,20.16,17.41,35.49,19.2,15.33,35.51,15.97,36.03,21.67.52,5.7-14.05,7.84-25.7,8.17,13.59,39.83,44.78,38.9,46.32,46.15,1.55,7.25-21.23,13.25-37.02,9.01,18.08,37.66,64.02,23.74,67.67,33.74,3.66,10-35.81,19.58-63.79,14.59,10.96,15.32,33.43,15,34.69,20.32,1.26,5.32-15.34,9.33-29.88,7.58,17.54,39.42,77.4,37.77,79.74,45.76,2.34,7.99-35.2,11.32-43.61,9.82,8.41,31,49.55,43.71,47.45,50.92s-31.13,7.48-52.31-1.03c10.35,30.75,59.86,46.45,56.84,51.28-3.02,4.83-22.22,4.17-30.85,2.83,13.81,46,70.75,57.92,63.42,64.92-7.33,7-35.59,1.5-49.14-1.41-6.18,37.41,57.56,48.66,52.38,59.16-5.18,10.5-73.55-1.45-179.25-.16Z"/>
    <path class="cls-1" d="m563.41,1041.54c-105.7,1.29-186.32,5.18-186.33-5-.01-10.18,66.83-7.18,87.36-47.5-17.94,4.42-62.81,16.82-66.69,8.99-3.88-7.83,23.98-12.66,48.32-39.5,24.34-26.84,30.47-47.5,30.47-47.5,0,0-57.54,31.83-63.19,25.67-5.65-6.17,43.68-37.84,59.47-60-10.11,5.62-34.97,9.58-35.83,1.17s30.2-19.33,34.3-37.67c-15.61,6.25-54.84,6.5-54.56-5.88.28-12.38,59-4.12,88.49-96.78-20.1,17.41-72.51,33.16-78.34,24.28-5.82-8.88,63.32-32.14,62.6-98.46-27.11,13.45-62.58,7.94-63.64,1.51-1.06-6.43,41.16-9.8,50.91-37.33-12.39,9.49-31.61,11.24-34.28,5.91-2.67-5.33,18.84-14.1,36-41.24,17.17-27.14,28.47-90.17,28.47-90.17,0,0-40.59,42.66-45.77,35.66-5.18-7,24.59-36.5,38.83-79,14.24-42.5,20.53-68.66,27.65-68.66s9.92,58.17,27.18,86.5,45.66,42.01,44.44,47.33c-1.22,5.32-19.79,2.58-29.7-3.68,7.73,22.36,30.89,28.75,30.52,36-.36,7.25-27.09,6.52-27.09,6.52,0,0-1.79,20.16,17.41,35.49,19.2,15.33,35.51,15.97,36.03,21.67.52,5.7-14.05,7.84-25.7,8.17,13.59,39.83,44.78,38.9,46.32,46.15,1.55,7.25-21.23,13.25-37.02,9.01,18.08,37.66,64.02,23.74,67.67,33.74,3.66,10-35.81,19.58-63.79,14.59,10.96,15.32,33.43,15,34.69,20.32,1.26,5.32-15.34,9.33-29.88,7.58,17.54,39.42,77.4,37.77,79.74,45.76,2.34,7.99-35.2,11.32-43.61,9.82,8.41,31,49.55,43.71,47.45,50.92-2.1,7.21-31.13,7.48-52.31-1.03,10.35,30.75,59.86,46.45,56.84,51.28-3.02,4.83-22.22,4.17-30.85,2.83,13.81,46,70.75,57.92,63.42,64.92-7.33,7-35.59,1.5-49.14-1.41-6.18,37.41,57.56,48.66,52.38,59.16-5.18,10.5-73.55-1.45-179.25-.16Z"/>
    <g>
      <path class="cls-2" d="m2719.29,1118.45s11.12-100.33,15.5-177.41c4.38-77.08,1.17-194.5,3.93-262,1.13-27.67,3.77-74.26,2.91-120.67-.9-48.32-.13-98.56.04-107.06.17-8.5,4.23-23.58,8.83-15.83s2.91,186.47,5.91,243.56c3,57.09,1.5,210.08,0,265.58-1.5,55.5-6,173.83-6,173.83h-31.12Z"/>
      <path class="cls-2" d="m2658.54,534.04c-3.25,3.16,16.88,24.56,33.25,29.66-9.75,5.88-27.31,5.98-27.28,11.24.03,5.26,30.11,12.78,58.03,7.1-10.17,12.32-32.83,13.59-32.92,20-.08,6.41,43.33,8.74,60.25-10.51,0,0-3.58,50.75,3.25,60.58,6.83,9.83,30.86,18.23,35.01,13.84,4.15-4.39-12.85-10.59-17.01-25.25,44,.91,61.25-22.82,57.92-28s-19.58,8.25-40.42,2.92c9.17-2.17,20-11.08,18.17-17.33-1.83-6.25-27.33,2.33-35.25-21.75,20.92-2.75,25.92-13.75,23.58-16.75-2.33-3-23.75,7.58-41.91-9.33-1.54-1.32-2.92-17.56-4.09-19.33,0,0-17.33,12.5-43,12.67-25.67.17-44.33-12.9-47.58-9.74Z"/>
      <path class="cls-2" d="m2746.62,704.12c-26.71,33.83-63.56,21.03-64.58,29.08-1.02,8.06,26.29,15.56,38.21,12.84-14.46,25.91-57.96,20.66-58.71,26.91s17.13,9.13,20.62,9c-3.5,7.99-37.12,8.83-35.88,16.12s42.02,8.96,60.58-6.12c-5.5,25.17-38.78,28.1-38.76,36.01.01,7.91,38.35,2.26,48.33-9-4.15,35.49-45.86,47.59-44.32,53.42,1.54,5.82,36.55-1.44,48.54-12.43-.46,6.61-7.5,20.62-4,23.38s27.62-31,35.56-46.7c0,0-6.95-55.5,2.25-65.74,20.05,20.16,50.14,14.4,50.14,8.56,0-5.83-29.74-5.33-32.52-29.69,7.78,5.03,21.95,6.13,24.7,2.04,2.75-4.09-16.83-8.93-19.59-22.5,15.46-3.09,28.78-15.84,24.84-20.72s-25.31,12.67-55.42-4.46Z"/>
      <path class="cls-2" d="m2742.79,896.54c-28.62,33.03-55.12,19.72-57.5,26.5-2.38,6.78,23.07,15.31,38.25,12.41-12.62,15-51.18,2.18-53.72,8.59s27.09,15.79,27.09,15.79c0,0-14,2.81-12.62,7.22,1.38,4.41,41.08.91,61.5-24.68,12.35,12.67,33.5,14.01,35.92,9.47,2.42-4.55-12.17-8.88-16.17-17.04,34,.49,44.17-18.18,40.33-21.43-3.83-3.25-12.5,8.27-36.33,2.68,6.67-2.93,15-10.24,12.75-13.75-2.25-3.51-16.5,8.09-32.25,4.75-3.72-1.04-.88-10.09-7.25-10.5Z"/>
      <path class="cls-2" d="m2738.29,959.04s-7,14.28-41.12,20.28-58.38-4.44-59.88,1.47c-1.5,5.91,13.12,14.28,26.12,15.41-6.5,1.5-18.62,2-18,7s35.5,9,64.88-3.16c0,0-1.12,13.28-17.88,24.41s-33.25,11.31-33.62,17.22,35.75,5.5,54.5-7c0,0-11.88,16.34-7.25,20.25s36.5-34.38,36.5-34.38c0,0,1.96,13.23,6.08,15.57,20.5,8.03,48.42.27,46.92-5.82-1.5-6.09-19.25-7.09-32.38-26.34,11,4.75,32.25,9.81,35,6.09,2.75-3.72-17.38-10.34-27.88-17.5,9.58.16,22.62-7.5,20.25-13.72s-20.62,5.5-36.88-12.66c-5.62-5.09-15.38-7.12-15.38-7.12Z"/>
    </g>
    <g>
      <path class="cls-2" d="m958.21,1238.08s11.12-100.33,15.5-177.41c4.38-77.08,1.17-194.5,3.93-262,1.13-27.67,3.77-74.26,2.91-120.67-.9-48.32.95-100.11,1.12-108.61.17-8.5,6.2-21.31,10.8-13.56s-.13,185.75,2.87,242.84c3,57.09,1.5,210.08,0,265.58-1.5,55.5-6,173.83-6,173.83h-31.12Z"/>
      <path class="cls-2" d="m897.46,653.67c-4.71,6.4,16.87,24.56,33.25,29.66-9.75,5.88-27.31,5.98-27.28,11.24.03,5.26,30.11,12.78,58.03,7.1-10.17,12.32-32.87,10.6-32.92,20-.05,9.4,43.33,8.74,60.25-10.51,0,0-3.58,50.75,3.25,60.58,6.83,9.83,30.86,18.23,35.01,13.84,4.15-4.39-12.85-10.59-17.01-25.25,44,.91,61.25-22.82,57.92-28s-19.58,8.25-40.42,2.92c9.17-2.17,20-11.08,18.17-17.33s-27.33,2.33-35.25-21.75c20.92-2.75,26.63-12.74,23.58-16.75-3.05-4.01-23.75,7.58-41.91-9.33-1.54-1.32-2.92-17.56-4.09-19.33,0,0-17.33,12.5-43,12.67-25.67.17-42.87-16.14-47.58-9.74Z"/>
      <path class="cls-2" d="m985.54,823.74c-26.71,33.83-63.56,21.03-64.58,29.08-1.02,8.06,26.29,15.56,38.21,12.84-14.46,25.91-57.96,20.66-58.71,26.91s17.13,9.13,20.62,9c-3.5,7.99-37.12,8.83-35.87,16.12s42.02,8.96,60.58-6.12c-5.5,25.17-38.78,28.1-38.76,36.01.01,7.91,38.35,2.26,48.33-9-4.15,35.49-45.86,47.59-44.32,53.42,1.54,5.82,36.55-1.44,48.54-12.43-.46,6.61-7.5,20.62-4,23.38s27.62-31,35.56-46.7c0,0-6.95-55.5,2.25-65.74,20.05,20.16,50.14,14.4,50.14,8.56,0-5.83-29.74-5.33-32.52-29.69,7.78,5.03,21.95,6.13,24.7,2.03,2.75-4.09-16.83-8.93-19.59-22.5,15.46-3.09,28.78-15.84,24.84-20.72s-25.31,12.67-55.42-4.46Z"/>
      <path class="cls-2" d="m981.71,1016.17c-28.62,33.03-55.12,19.72-57.5,26.5-2.37,6.78,23.07,15.31,38.25,12.41-12.62,15-51.18,2.18-53.72,8.59-2.53,6.41,27.09,15.79,27.09,15.79,0,0-14,2.81-12.62,7.22,1.37,4.41,41.08.91,61.5-24.68,12.35,12.67,33.5,14.01,35.92,9.47,2.42-4.55-12.17-8.88-16.17-17.04,34,.49,44.17-18.18,40.33-21.43-3.83-3.25-12.5,8.27-36.33,2.68,6.67-2.93,15-10.24,12.75-13.75-2.25-3.51-16.5,8.09-32.25,4.75-3.72-1.04-.87-10.09-7.25-10.5Z"/>
      <path class="cls-2" d="m977.21,1078.67s-7,14.28-41.12,20.28-58.37-4.44-59.87,1.47c-1.5,5.91,13.12,14.28,26.12,15.41-6.5,1.5-18.62,2-18,7s35.5,9,64.87-3.16c0,0-1.12,13.28-17.87,24.41s-33.25,11.31-33.62,17.22c-.37,5.91,35.75,5.5,54.5-7,0,0-11.87,16.34-7.25,20.25,4.62,3.91,36.5-34.38,36.5-34.38,0,0,1.96,13.23,6.08,15.57,20.5,8.03,48.42.27,46.92-5.82-1.5-6.09-19.25-7.09-32.37-26.34,11,4.75,32.25,9.81,35,6.09,2.75-3.72-17.37-10.34-27.87-17.5,9.58.16,22.62-7.5,20.25-13.72-2.37-6.22-20.62,5.5-36.87-12.66-5.62-5.09-15.37-7.12-15.37-7.12Z"/>
    </g>
    <path class="cls-2" d="m1679.54,1235.25c7.87-11.67-37.5-28-36.19-57.67,28.31,19,71.86,26,73.31,14.33,1.45-11.67-80.72-34.23-82.03-120.07,9.84,7.73,63.78,6.96,65.19-3.54s-44.01-21.5-53.78-87c10.22,12.58,25.45,16.5,28.95,11.5s-30.33-51.06-30.33-51.06c0,0,54.94,9.85,57.28-5.16,2.34-15.01-68.91-22.34-88.03-102.01,10.12,8.33,52.12,25.83,57.37,15.33s-22.31-19.58-42-59.58c-19.69-40-12.8-90.52-12.8-90.52,0,0,26.68,55.33,34.93,48.33s-19.13-36.56-32.25-86.56-13.45-126.88-22.12-128c-8.67-1.12-6.56,27.88-16.97,43.88s-30.37,13-32.2,19.25c-1.83,6.25,12.94,11.52,24.75,10.75-5.62,71.5-81.51,77.46-82.64,88.29-1.12,10.83,33.56,12.83,33.56,12.83,0,0-33.19,17.67-30,24.67s37.59-.42,37.59-.42c0,0-7.04,27.85-25.87,46.75-23.45,23.52-50.9,31.5-48.65,40.5s40.92,11,63-3.38c-21.23,45.62-54.75,50.21-52.4,58.29s26.53,5.58,31.31,4.83c-18.66,22.5-46.12,19.83-46.78,27.67s33.09,14.83,62.3.83c-7.41,45.17-72.66,59.67-70.74,69.59,1.92,9.92,38.48,7.67,52.55.54-15.05,61.12-100.54,83.62-96.79,95.46,3.75,11.83,62.25,4.5,74.06-1.17-27.37,50.83-101.06,54.69-97.31,65.5s46.69,8,59.25,4.33c-15.94,18.67-41.57,23.65-39.44,30.74,2.13,7.09,30.44,3.93,39.26-.41-7.12,41.5-83.06,49.67-83.06,62.33s95.58-1.08,180.74-3c78.42-1.76,139.12,14.67,146.99,3Z"/>
    <path class="cls-2" d="m590.48,1016.8c-6.72-12.37,40.02-24.26,41.56-53.92-30.01,16.19-74.02,18.97-74.35,7.22-.32-11.75,83.63-26.31,93.19-111.62-10.54,6.75-42.46,6.68-42.85-3.91-.39-10.59,59.96-41.42,69.45-87.42-13.24,9.91-41.15,13.67-44.82,8-3.67-5.67,41.29-37.04,41.29-37.04,0,0-73.41,6.54-74.29-8.63-.89-15.16,73.33-19.33,94.66-105.18-10.88,7.32-54.37,20.7-58.58,9.75-4.22-10.96,24.09-17.35,47.53-55.27,23.44-37.92,30.2-75.7,30.2-75.7,0,0-49.25,50.67-56.79,42.9-7.54-7.76,31.18-45.88,49.05-94.39s25.59-124.99,34.33-125.28c8.74-.29,3.85,28.38,12.67,45.3,8.82,16.93,28.98,15.86,30.2,22.26s-13.98,10.22-25.67,8.32c-1.28,71.71,73.69,84.94,73.77,95.83.08,10.89-34.64,9.55-34.64,9.55,0,0,31.33,20.78,27.49,27.44-3.85,6.66-37.38-4.03-37.38-4.03,0,0,4.32,28.4,21.26,49.02,21.08,25.67,44.76,37.56,42.49,42.56-2.27,5-33.91-11.82-54.5-28.25,16.75,47.46,45.86,63.43,42.75,71.25-3.11,7.82-32.81-3.54-37.5-4.75,15.5,35.25,47.85,43.8,47.75,51.66-.1,7.86-34.37,11.58-62.09-5.17,3.03,45.67,66.59,66.38,63.72,76.07-2.87,9.69-39.04,3.93-52.35-4.51,9.1,62.29,92.04,92.91,87.17,104.32-4.87,11.42-62.39-1.51-73.6-8.28,7.11,74.96,69.85,95.71,67.47,107.56-2.37,11.85-44.06,1.13-52.41-4.03,3.1,41.99,91.28,57.28,90.06,69.89-1.22,12.61-95.03-10.27-179.62-20.37-77.89-9.3-139.89,1.22-146.6-11.15Z"/>
    <path class="cls-1" d="m1683.19,1111.01c-7.87-11.67,37.5-28,36.19-57.67-28.31,19-71.86,26-73.31,14.33s80.72-34.23,82.03-120.07c-9.84,7.73-41.62,10.73-43.03.23s66.65-50.25,63.37-118.83c-10.22,12.58-38.81,33.75-48.37,26.5-9.56-7.25,18-38,18-38,0,0-54.94,9.85-57.28-5.16-2.34-15.01,68.91-22.34,88.03-102.01-10.12,8.33-52.12,25.83-57.37,15.33-5.25-10.5,22.31-19.58,42-59.58,19.69-40,22.78-78.25,22.78-78.25,0,0-44.15,55.17-52.4,48.17s26.62-48.67,39.75-98.67c13.12-50,13.45-126.88,22.12-128s6.56,27.88,16.97,43.88c10.41,16,30.37,13,32.2,19.25,1.83,6.25-12.94,11.52-24.75,10.75,5.62,71.5,81.51,77.46,82.64,88.29,1.12,10.83-33.56,12.83-33.56,12.83,0,0,33.19,17.67,30,24.67s-37.59-.42-37.59-.42c0,0,7.04,27.85,25.87,46.75,23.45,23.52,50.9,31.5,48.65,40.5-2.25,9-40.92,11-63-3.38,21.23,45.62,54.75,50.21,52.4,58.29-2.34,8.08-26.53,5.58-31.31,4.83,18.66,22.5,46.12,19.83,46.78,27.67.66,7.83-33.09,14.83-62.3.83,7.41,45.17,72.66,59.67,70.74,69.59s-38.48,7.67-52.55.54c15.05,61.12,100.54,83.62,96.79,95.46-3.75,11.83-62.25,4.5-74.06-1.17,27.37,50.83,101.06,54.69,97.31,65.5-3.75,10.81-46.69,8-59.25,4.33,15.94,18.67,41.57,23.65,39.44,30.74-2.13,7.09-30.44,3.93-39.26-.41,7.12,41.5,83.06,49.67,83.06,62.33s-95.58-1.08-180.74-3c-78.42-1.76-139.12,14.67-146.99,3Z"/>
    <g>
      <path class="cls-2" d="m2160.87,413.84c-10.07-.13-5.85,288.08-.74,359.12,5.11,71.04-13.49,329.81-13.49,329.81l30.13.39c-.1-.2,6.54-264.97,1.44-329.97-5.43-69.22-7.27-359.23-17.34-359.35Z"/>
      <path class="cls-2" d="m2159.39,562.92c-23.09-.24-43.24-33.42-49.17-29.2-5.93,4.22,11.11,29.23,22.22,38.17-6.33,3.29-22.93-2.79-22.86,3.23.07,6.02,15.85,17.88,40.98,23.3-18.21,11.86-30.86,8.21-29.74,13.67,1.12,5.46,30.66,5.7,41.7.85,63.27,6.95,86.17-50.76,80.17-53.52-5.99-2.76-15.78,21.85-39.88,28.61,4.91-5.43,14.73-17.67,10.64-20.62s-18.92,16.52-44.24,16.17l-9.83-20.66Z"/>
      <path class="cls-2" d="m2167.57,620.18c-22.88,23.12-48.83,11.14-51.59,15.56-2.76,4.41,10.5,16.21,30.95,14.46,0,0-19.77,8.22-18.33,12.4,1.45,4.19,11.41,3.81,17.1,2.39-10.43,23.24-59.05,17.55-60.86,23.25-1.81,5.7,25.72,16.39,53.55,10.29-.23,17.58-17.63,31.77-13.13,35.77,4.5,4,29.96-12.17,41.49-37.3,42.68,11.82,71.97-1.83,70.11-7.38-1.86-5.55-15.17-.98-33.27-6.04,28.82-18.06,40-45.29,36.11-47.21-3.89-1.91-13.95,15.15-33.75,24.17,5.62-4.66,11.22-15.92,7.34-18.43-3.88-2.51-10.4,18.37-44.71,17.08-6.79-3.91-3.01-19.25,2.46-22.54,26.39,1.01,38.52-14.64,35.9-18.48-2.62-3.84-16.8,9.48-39.37,2.02Z"/>
      <path class="cls-2" d="m2162.12,777.87c-7.96,45.28-45.12,45.51-44.86,52.9.26,7.39,29.76,2.23,36.36.22-27.4,26.3-77.86,25.21-77.97,31.4-.11,6.19,29.78,10.8,45.7,7.13-4.86,8.19-27.64,7.29-26.9,13.25.74,5.96,28.96,8.12,42.54,2.54-12.65,21.09-52.03,5.02-55.33,12.01s34.53,30.92,87.22,25.63c52.69-5.29,70.51-43,65.96-47.47-4.54-4.47-13.09,8.68-31.51,8.23,10.91-5.18,24.25-19.81,20.39-23.51-3.86-3.7-29.25,15.08-53.31,6.34-4.39-2.04.93-30.35,7.73-28.36,44.89,14.98,81.06-6.59,78.5-12.05-2.56-5.45-17.79,2.35-34.14-.77,28.59-5.59,49.73-28.43,44.63-34.19-5.1-5.76-58.46,31.43-84.96-5.76,25.93,4.31,47.12-10.6,44.06-15.24-3.06-4.64-41.04,13-57.61-8.78,0,0-5.14,9.48-6.49,16.48Z"/>
      <path class="cls-2" d="m2161.29,978.21c-14.29,32.44-69.42,32.23-71.27,40.09s27.3,12.19,40.98,8.36c-9.73,27.13-58.93,27.03-59.03,34.66-.11,7.62,45.88,9.59,68.07-4.87-6.03,12.17-19.74,18.62-17.19,24.53,2.55,5.91,40.11-10.23,40.11-10.23l13.81,32.43s56.41,1.2,56.75-5.84c.34-7.05-29.58-3.68-43.43-24.74,7.03-2.53,17.55-3.77,18.63-9.89,1.08-6.11-11.56-4.54-20.39-8.97,36.4-4.86,56.31-27.19,53.12-31.98-3.19-4.79-19.83,6-37.93,4.01,6.22-2.67,19.97-6.99,17.42-13.03s-30.59.52-35.34-28.71c12.19,4.66,36.83,3.72,36.79-2.65-.04-6.38-32.02-8.41-43.45-33.06l-14.49,7.05s1.81,16.29-3.15,22.85Z"/>
    </g>
    <g>
      <path class="cls-1" d="m3096.62,221.48c-10.07,0-2.14,288.13,3.89,359.1,6.03,70.97-9.24,329.96-9.24,329.96h30.13c-.1-.2,3.13-265.03-2.81-329.96-6.32-69.14-11.89-359.1-21.96-359.1Z"/>
      <path class="cls-1" d="m3097.07,370.57c-23.09.06-43.67-32.86-49.55-28.57-5.87,4.3,11.49,29.08,22.71,37.88-6.29,3.37-22.96-2.5-22.81,3.52.15,6.02,16.08,17.68,41.27,22.77-18.05,12.09-30.75,8.61-29.56,14.05,1.19,5.45,30.73,5.3,41.71.31,63.35,6.13,85.5-51.87,79.48-54.54-6.03-2.68-15.5,22.05-39.5,29.13,4.84-5.49,14.5-17.86,10.38-20.76-4.13-2.9-18.71,16.77-44.02,16.74l-10.1-20.53Z"/>
      <path class="cls-1" d="m3105.98,427.71c-22.58,23.42-48.68,11.77-51.38,16.22s10.71,16.07,31.13,14.06c0,0-19.67,8.47-18.17,12.64s11.46,3.66,17.12,2.17c-10.12,23.38-58.82,18.31-60.56,24.03-1.74,5.72,25.93,16.05,53.68,9.59,0,17.59-17.22,31.99-12.67,35.93,4.55,3.94,29.8-12.56,41.01-37.83,42.83,11.27,71.94-2.75,70.01-8.28s-15.18-.78-33.35-5.61c28.58-18.43,39.41-45.81,35.5-47.67-3.91-1.86-13.75,15.33-33.43,24.6,5.56-4.73,11.01-16.06,7.1-18.52-3.92-2.46-10.17,18.5-44.49,17.65-6.84-3.82-3.26-19.21,2.17-22.57,26.4.67,38.33-15.14,35.66-18.94-2.67-3.81-16.67,9.69-39.34,2.53Z"/>
      <path class="cls-1" d="m3102.57,530.8c-7.38,45.38-44.52,46.09-44.17,53.47.35,7.38,29.79,1.85,36.36-.25-27.06,26.65-77.53,26.21-77.56,32.4-.03,6.19,29.92,10.42,45.79,6.54-4.75,8.25-27.55,7.64-26.73,13.59.81,5.95,29.06,7.74,42.56,1.99-12.38,21.25-51.96,5.69-55.17,12.72-3.21,7.03,34.93,30.47,87.55,24.5s69.95-43.91,65.35-48.32c-4.6-4.41-12.98,8.84-31.4,8.64,10.85-5.32,23.99-20.12,20.09-23.77-3.91-3.65-29.05,15.46-53.23,7.03-4.42-1.98.54-30.35,7.36-28.46,45.08,14.4,80.97-7.64,78.34-13.06-2.63-5.42-17.76,2.58-34.15-.33,28.52-5.96,49.36-29.07,44.19-34.76s-58.05,32.18-85.03-4.67c25.98,3.97,46.98-11.21,43.86-15.8-3.12-4.6-40.87,13.53-57.72-8.03,0,0-5.02,9.54-6.28,16.56Z"/>
      <path class="cls-1" d="m3104.32,785.8c-13.88,32.62-69,33.12-70.75,41s27.46,11.83,41.08,7.83c-9.38,27.25-58.57,27.79-58.58,35.42,0,7.62,46,9,68-5.75-5.88,12.25-19.5,18.88-16.88,24.75s39.98-10.75,39.98-10.75l14.23,32.25s56.42.47,56.67-6.58-29.62-3.3-43.75-24.17c7-2.62,17.5-4,18.5-10.12s-11.62-4.39-20.5-8.71c36.33-5.33,55.96-27.92,52.71-32.67s-19.75,6.25-37.88,4.5c6.19-2.75,19.88-7.25,17.25-13.25s-30.58.92-35.71-28.25c12.25,4.5,36.88,3.25,36.75-3.13s-32.12-8-43.88-32.5l-14.4,7.23s2.02,16.27-2.85,22.89Z"/>
    </g>
    <path class="cls-2" d="m.99,557.81s80.44,58.42,131.62,135.23c48.99,73.51,68.76,165.08,71.51,184.88,2.33,16.81,39.82,44.34,83.13,6.34,13.29-11.66,82.83,8.31,159.24,33.04,8.17,2.64,19.79,23.13,39.75,33.5,13.43,6.97,34.94-13.54,46.5-12.33,4.72.49,4.58,23.27,6.56,23.83,17.15,4.85,25.82-10.68,30.35-24.34,4.53-13.66,30.88.37,45.55-22.76,14.67-23.13,217.02,107.13,290.38,113.38,73.36,6.25,68.69-12.12,76.57-13.78s22.67,8.3,45.58,1.35c62.7-19.01,157.56-137.09,157.56-137.09l84.69,104.74s2.82,26.35,46.12,36c30.88,6.88,66.9-26.39,101.25-15.59,34.35,10.8,41.77,33.82,49.22,33.09,17.07-1.67,31.52-20.68,38.01-30.48,25.15-37.97,93.03-14.17,131.02,2.31,19.71,8.55,32.33,44.66,54,47.82,11.11,1.62,13.53-31.35,29.25-39.82,12.72-6.85,43.75,3.6,58.88,1.67,29.54-3.78,253,52.24,322.06,32.62,16.06-4.56,70.4-27.24,109-25.12,53.66,2.95,113.33,28.49,170.06,43.83,77.89,21.07,140.87,19.54,140.87,19.54,0,0,30.15,1.49,63.46-2.85,12.55-1.64,16.36-19.09,28.36-22.77,7.9-2.42,13.72,16.61,22.78,17,7.91.34,24.55-37.57,28.77-41.75,12.68-12.55,60.22-4.98,102.57-23,21.69-9.23,25.52-44.07,48.27-57.42,58.76-34.5,90.58-7.04,90.58-7.04l142.47-137.72s6.99,14.72,31.67,21.68c12.46,3.52,13.15-10.42,37.68-15.76s20.65,22.09,44.65,26.76,58.23-24.29,56.65-41c-1.01-10.69-26.33,4.67-32.33-12.33-1.86-5.26,33.57-14.98,57.34-33.33,53.07-41,129.52-108.55,180.6-148.33,28.01-21.82,105.94-78.73,105.94-78.73l71.81-13.75v915.48H.99v-877Z"/>
    <path class="cls-2" d="m247.49,1026.01c-4.12-8.67,76.46-23.5,80.62-81.67,0,0-45.84,19.75-51,11.33-5.16-8.42,72.17-52.16,96.93-121.67-8.83,9.67-69.68,29.66-74.12,21.16-4.44-8.5,37.75-20,62.59-95.16-13.2,9.9-42.65,15.67-48.65,9.5-6-6.17,28.08-22.17,34.12-32.33-6.89,3.08-21.37,2.83-20.81-5.67.56-8.5,42.14-32.95,57.32-62.95-10.97,7.5-41.29,20.45-42.23,12.45-.94-8,27.28-10.5,49.59-58.17-10.87,11.33-65,21.83-68.68,15.66-3.69-6.16,43.29-19.86,52.43-60.99-5.2,5.38-29.39,10.29-30.51,2.83-1.12-7.46,23.66-7.36,51.17-65.34,27.15-57.21,29.22-158.5,38.66-158.5s6.06,60.25,22.09,99.5,43.16,48.5,40.22,54c-2.94,5.5-18.9,3.63-27,.5,5.44,60.33,45.94,64.5,44.06,72.17-1.87,7.67-26.11,6.96-32.34,6.67,4.77,6.7,16.87,13.3,14.76,18.17-2.11,4.88-19.54.99-23.1.99,11.25,24.67,34.94,30.49,33.87,36.16-1.06,5.67-17.84,7.21-26.14,3.96,16.87,38.38,68.7,47.08,70.45,55.75s-16.87,13.12-42.37,9.96c8.62,45.92,60,54.5,57.75,64.17-2.25,9.67-43.78,10-61.5,0-2.25,57.33,78.71,58.5,74.77,70.5-3.94,12-33.78,8.33-40.5,7.5,17.47,34.34,50.02,27.5,48.94,37.5s-43.73,9.75-60.57-.25c24.97,62.67,92.88,74.24,90.95,83.25s-49.74,1.5-60.99-1c16.87,33.5,52.56,36.5,49.59,45.33-2.96,8.84-97.98,7.48-176.53,5.33-76.87-2.1-179.71,8-183.83-.67Z"/>
    <path class="cls-2" d="m1193.99,1027.15c-105.7,1.29-178.71-36.93-178.73-47.11-.01-10.18,66.83-7.18,87.36-47.5-17.94,4.42-62.81,16.82-66.69,8.99-3.88-7.83,23.98-12.66,48.32-39.5s30.47-47.5,30.47-47.5c0,0-46.08,21.12-51.73,14.95-5.65-6.17,32.23-27.13,48.01-49.28-10.11,5.62-34.97,9.58-35.83,1.17-.86-8.42,30.2-19.33,34.3-37.67-15.61,6.25-54.84,6.5-54.56-5.88s59-4.12,88.49-96.78c-20.1,17.41-72.51,33.16-78.34,24.28-5.82-8.88,63.32-32.14,62.6-98.46-27.11,13.45-62.58,7.94-63.64,1.51s44.23-22.78,53.98-50.31c-12.39,9.49-34.68,24.22-37.35,18.88s18.84-14.1,36-41.24c17.17-27.14,28.47-90.17,28.47-90.17,0,0-40.59,42.66-45.77,35.66-5.18-7,24.59-36.5,38.83-79,14.24-42.5,20.53-68.66,27.65-68.66s9.92,58.17,27.18,86.5c17.26,28.33,45.66,42.01,44.44,47.33-1.22,5.32-19.79,2.58-29.7-3.68,7.73,22.36,30.89,28.75,30.52,36-.36,7.25-27.09,6.52-27.09,6.52,0,0-1.79,20.16,17.41,35.49,19.2,15.33,35.51,15.97,36.03,21.67.52,5.7-14.05,7.84-25.7,8.17,13.59,39.83,44.78,38.9,46.32,46.15s-21.23,13.25-37.02,9.01c18.08,37.66,64.02,23.74,67.67,33.74s-35.81,19.58-63.79,14.59c10.96,15.32,33.43,15,34.69,20.32,1.26,5.32-15.34,9.33-29.88,7.58,17.54,39.42,77.4,37.77,79.74,45.76,2.34,7.99-35.2,11.32-43.61,9.82,8.41,31,49.55,43.71,47.45,50.92s-31.13,7.48-52.31-1.03c10.35,30.75,59.86,46.45,56.84,51.28-3.02,4.83-22.22,4.17-30.85,2.83,13.81,46,70.75,57.92,63.42,64.92s-40.07,15.27-53.62,12.37c-6.18,37.41,62.03,34.88,56.86,45.38-5.18,10.5-81.15,40.66-186.86,41.95Z"/>
    <path class="cls-2" d="m1916.2,1085.46c-105.44-7.56-186.1-10.43-185.26-20.57.84-10.14,67.2-1.56,91.03-40.03-18.25,2.91-63.99,11.51-67.21,3.38-3.21-8.13,24.96-10.61,51.45-35.32,26.5-24.71,34.33-44.78,34.33-44.78,0,0-60,26.91-65.11,20.29-5.11-6.62,46.7-34.06,64.28-54.82-10.54,4.76-35.65,6.62-35.8-1.83-.15-8.46,32.47-33.54,38.09-51.47-15.5,8.25-53.03,15.52-54.64,6.38s59.14.83,96.27-89.04c-21.48,15.66-75.03,26.97-80.09,17.64-5.06-9.33,65.78-26.73,70.62-92.88-28.14,11.13-63.02,2.67-63.54-3.82-.52-6.49,41.84-6.32,53.85-32.94-13.14,8.42-32.44,8.56-34.65,3.02-2.22-5.54,19.95-12.48,39.33-38.08,19.37-25.6,35.92-87.47,35.92-87.47,0,0-44.02,39.11-48.59,31.7s27.56-34.32,45.3-75.48c17.74-41.16,26.2-66.7,33.29-66.1,7.09.6,5.02,58.79,19.85,88.47,14.83,29.68,41.98,45.68,40.32,50.88-1.66,5.2-19.94.92-29.29-6.15,5.83,22.93,28.37,31.23,27.4,38.43-.97,7.19-27.54,4.23-27.54,4.23,0,0-3.47,19.94,14.38,36.82,17.85,16.89,34.05,18.88,34.09,24.6.04,5.72-14.66,6.64-26.29,5.99,10.21,40.83,41.37,42.51,42.3,49.86.93,7.35-22.27,11.43-37.64,5.88,14.87,39.04,61.81,29.01,64.61,39.28,2.81,10.27-37.32,16.52-64.79,9.21,9.64,16.19,32.06,17.74,32.87,23.15s-16.06,8.02-30.4,5.06c14.18,40.75,73.97,44.11,75.63,52.27,1.66,8.16-36.02,8.34-44.28,6.14,5.79,31.59,45.72,47.7,43.03,54.71-2.7,7.01-31.65,4.85-52.04-5.4,7.75,31.51,55.77,51.29,52.35,55.85s-22.49,2.29-30.97.24c9.91,46.99,65.66,63.63,57.76,69.99-7.89,6.36-35.59-1.48-48.85-5.51-9.29,36.76,53.28,53.3,47.25,63.33-6.04,10.03-73.17-7.59-178.61-15.15Z"/>
    <path class="cls-2" d="m2951.58,1053.5c-105.7,1.29-186.32,5.18-186.33-5-.01-10.18,66.83-7.18,87.36-47.5-17.94,4.42-62.81,16.82-66.69,8.99s23.98-12.66,48.32-39.5c24.34-26.84,24.75-37.9,24.75-37.9,0,0-46.71,12.94-52.36,6.77-5.65-6.17,38.57-28.55,54.35-50.71-10.11,5.62-34.97,9.58-35.83,1.17-.86-8.42,30.2-19.33,34.3-37.67-15.61,6.25-54.84,6.5-54.56-5.88s59-4.12,88.49-96.78c-20.1,17.41-72.51,33.16-78.34,24.28-5.82-8.88,63.32-32.14,62.6-98.46-27.11,13.45-62.58,7.94-63.64,1.51s44.75-15.24,54.49-42.77c-12.39,9.49-35.19,16.68-37.87,11.35-2.67-5.33,18.84-14.1,36-41.24,17.17-27.14,28.47-90.17,28.47-90.17,0,0-40.59,42.66-45.77,35.66-5.18-7,24.59-36.5,38.83-79,14.24-42.5,20.53-68.66,27.65-68.66s9.92,58.17,27.18,86.5c17.26,28.33,45.66,42.01,44.44,47.33-1.22,5.32-19.79,2.58-29.7-3.68,7.73,22.36,30.89,28.75,30.52,36-.36,7.25-27.09,6.52-27.09,6.52,0,0,.78,22.08,19.98,37.42,19.2,15.33,37.5,16.52,38.01,22.22.52,5.7-19.39,1.92-31.04,2.25,13.59,39.83,45.57,42.35,47.11,49.6s-21.23,13.25-37.02,9.01c18.08,37.66,64.02,23.74,67.67,33.74s-35.81,19.58-63.79,14.59c10.96,15.32,33.43,15,34.69,20.32,1.26,5.32-15.34,9.33-29.88,7.58,17.54,39.42,77.4,37.77,79.74,45.76,2.34,7.99-35.2,11.32-43.61,9.82,8.41,31,49.55,43.71,47.45,50.92-2.1,7.21-31.13,7.48-52.31-1.03,10.35,30.75,59.86,46.45,56.84,51.28-3.02,4.83-22.22,4.17-30.85,2.83,13.81,46,70.75,57.92,63.42,64.92-7.33,7-35.59,1.5-49.14-1.41-6.18,37.41,57.56,48.66,52.38,59.16-5.18,10.5-73.55-1.45-179.25-.16Z"/>
    <path class="cls-2" d="m2505.66,1132.54c-105.7-1.71-186.39-.11-186.12-10.28.27-10.17,67.01-5.28,88.67-45.01-18.06,3.91-63.26,15.04-66.92,7.1-1.86-4.03,22.12-9.69,49.92-31.75,27.03-21.45,37.87-49.56,37.87-49.56,0,0-38.4,20.39-43.87,14.06-5.47-6.32,44.74-36.59,61.14-58.29-10.26,5.34-61.81,14.97-62.43,6.53-.62-8.44,30.73-18.47,35.35-36.68-15.78,5.81-55,4.94-54.37-7.42.63-12.36,59.1-2.45,91.19-94.23-20.58,16.83-73.42,31.09-78.99,22.05-5.57-9.04,64.2-30.33,65.37-96.64-24.8,17.9-54.59,22.1-55.47,15.65s37.48-14.01,48-41.25c-15.33,6-39.69,3.73-38.68-5.63,1.01-9.37,24.42-19.4,42.34-46.03,17.93-26.64,25.83-83.49,25.83-83.49,0,0-41.78,41.49-46.76,34.34-4.98-7.14,25.61-35.79,41.05-77.87,15.44-42.08,22.47-68.05,29.58-67.85,7.12.2,8.27,58.42,24.72,87.24,16.45,28.81,44.45,43.29,43.08,48.57-1.37,5.29-19.86,2.02-29.58-4.52,7.09,22.57,30.06,29.61,29.49,36.85-.57,7.24-27.26,5.75-27.26,5.75,0,0-2.36,20.1,16.4,35.97,18.76,15.87,35.05,16.97,35.4,22.68.35,5.71-14.27,7.44-25.92,7.44,12.46,40.2,43.66,40.15,45,47.44,1.34,7.29-21.6,12.64-37.26,7.96,17.01,38.15,63.32,25.54,66.69,35.64s-36.35,18.56-64.18,12.78c10.52,15.63,33,15.94,34.1,21.3,1.11,5.36-15.6,8.89-30.08,6.73,16.41,39.9,76.3,39.95,78.41,48,2.11,8.05-35.5,10.32-43.87,8.58,7.53,31.23,48.3,45.1,45.99,52.24-2.31,7.15-31.33,6.6-52.26-2.51,9.48,31.03,58.52,48.12,55.37,52.87-3.16,4.75-22.33,3.54-30.91,1.96,12.5,46.37,69.08,59.9,61.55,66.69-7.53,6.79-35.62.49-49.08-2.8-7.24,37.22,56.15,50.27,50.68,60.62-5.47,10.35-73.48-3.53-179.17-5.24Z"/>
    <path class="cls-2" d="m3154.15,767.91c-4.12-8.67,76.46-23.5,80.62-81.67,0,0-45.84,19.75-51,11.33-5.16-8.42,72.17-52.16,96.93-121.67-8.83,9.67-69.68,29.66-74.12,21.16s37.75-20,62.59-95.16c-13.2,9.9-42.65,15.67-48.65,9.5-6-6.17,28.08-22.17,34.12-32.33-6.89,3.08-21.37,2.83-20.81-5.67s41.53-19,56.72-49c-10.97,7.5-40.69,6.5-41.62-1.5-.94-8,27.28-10.5,49.59-58.17-10.87,11.33-65,21.82-68.68,15.66-3.69-6.16,43.29-19.86,52.43-60.99-5.2,5.38-29.39,10.29-30.51,2.83-1.12-7.46,23.66-7.36,51.17-65.34,27.15-57.21,29.22-158.5,38.66-158.5s6.06,60.25,22.09,99.5c16.03,39.25,43.16,48.5,40.22,54-2.94,5.5-18.9,3.63-27,.5,5.44,60.33,45.94,64.5,44.06,72.17-1.87,7.67-26.11,6.96-32.34,6.67,4.77,6.7,16.87,13.3,14.76,18.17s-19.54.99-23.1.99c11.25,24.67,34.94,30.49,33.87,36.16-1.06,5.67-17.84,7.21-26.14,3.96,16.87,38.38,68.7,47.08,70.45,55.75,1.75,8.67-16.87,13.12-42.37,9.96,8.62,45.92,60,54.5,57.75,64.17-2.25,9.67-43.78,10-61.5,0-2.25,57.33,78.71,58.5,74.77,70.5-3.94,12-33.78,8.33-40.5,7.5,17.47,34.34,50.02,27.5,48.94,37.5s-43.73,9.75-60.57-.25c24.97,62.67,92.88,74.24,90.94,83.25-1.93,9-49.74,1.5-60.99-1,16.87,33.5,52.56,36.5,49.59,45.33s-97.98,7.48-176.53,5.33c-40.53-1.11-63.56-27.09-99.32-1.76-35.75,25.33-82.56,5.19-84.51,1.09Z"/>
    <path class="cls-2" d="m3599.59,99.5c-16.03-39.25-12.66-99.5-22.09-99.5s-11.51,101.29-38.66,158.5c-27.51,57.98-52.3,57.88-51.17,65.34,1.12,7.46,25.31,2.54,30.51-2.83-9.14,41.12-56.12,54.83-52.43,60.99,3.69,6.16,57.81-4.33,68.68-15.66-22.31,47.67-50.53,50.17-49.59,58.17.94,8,30.66,9,41.62,1.5-15.19,30-56.15,40.5-56.72,49s13.92,8.75,20.81,5.67c-6.05,10.17-40.12,26.17-34.12,32.33,6,6.17,35.45.4,48.65-9.5-24.84,75.17-67.03,86.67-62.59,95.16,4.44,8.5,65.29-11.49,74.12-21.16-24.77,69.5-102.09,113.25-96.93,121.67,5.16,8.42,51-11.33,51-11.33-4.16,58.16-84.75,73-80.62,81.67,4.12,8.67,106.96-1.43,183.83.67,8.87.24,17.96.47,27.1.68V102.79c-.48-1.07-.94-2.16-1.4-3.28Z"/>
    <path class="cls-2" d="m70.89,537.25c16.84,10,59.48,10.25,60.57.25,1.09-10-31.46-3.16-48.94-37.5,6.71.83,36.56,4.5,40.5-7.5,3.94-12-77.02-13.16-74.77-70.5,17.72,10,59.25,9.67,61.5,0,2.25-9.67-49.12-18.25-57.75-64.17,25.5,3.17,44.12-1.29,42.37-9.96-1.75-8.67-53.58-17.38-70.45-55.75,8.3,3.25,25.08,1.71,26.14-3.96,1.06-5.67-22.62-11.5-33.87-36.16,3.56,0,20.99,3.88,23.1-.99,2.11-4.88-9.98-11.47-14.76-18.17,6.23.29,30.47,1,32.34-6.67,1.88-7.67-38.62-11.83-44.06-72.17,8.1,3.13,24.06,5,27-.5,2.85-5.35-22.66-14.23-38.81-50.72v568.07c71.75,1.64,146.81,1.82,149.44-6.02,2.96-8.84-32.72-11.83-49.59-45.33,11.25,2.5,59.06,10,60.99,1,1.93-9-65.97-20.57-90.94-83.25Z"/>
  </g>
</svg>