<?xml version="1.0" encoding="UTF-8"?>
<svg id="Layer_2" data-name="Layer 2" xmlns="http://www.w3.org/2000/svg" viewBox="0 0 3600 1485.11">
  <defs>
    <style>
      .cls-1 {
        fill: #1c7f61;
        stroke-width: 0px;
      }
    </style>
  </defs>
  <g id="_3" data-name="3">
    <path class="cls-1" d="m0,3.75s37.68-15,52.68,15c15,30,43.13,46.17,43.13,46.17,0,0,15.28-20.37,30.19-21.81,5.76-.56,11.49,12.54,16.21,14.63,3.83,1.69,9.53-8.46,13.62-7.47,14.04,3.39,26.11,14.64,26.11,14.64,0,0,19.22,4.82,28.22,6.32,9,1.5,30.95-13.5,31.22-16.5.27-3,10.77-2.15,21.27,10.17s-6,34.82,10.5,12.32c16.5-22.5,11.25-18.01,18.61-22.51s19.63-15.26,23.87-13.5c4.23,1.76,0,26.84,7.5,29.17,7.5,2.33,7.5-8.33,15,0,7.5,8.33,16.47-5.17,26.75,2.33s15.21,15,31.49,21c12.08,4.45,12.96-9.82,22.12-9.63,3.19.07,8.05,11.08,13.82,12.63,22.34,6,19.34,16.5,46.34,16.5s34.39,28.24,49.44,16.37c15.05-11.87,48.05-49.37,61.55-44.87,13.5,4.5,58.5,7.5,64.5,19.5,6,12,5.03,33,16.76,36,7.2,1.84,25.91-12.94,42.09-11.88,10.2.67,20.14,17.3,23.2,17.88,7.94,1.5,30.44,17.99,30.44,17.99,0,0,26.86-11.88,35.86-8.99s7.5,15.39,15,17.39,28.96-10.8,29.48-8.4c.52,2.4,13.52,10.4,15.52,16.4s17.5,4,17.5,4c0,0,11.5,1.64,12,.32s4-9.82,8.5-9.82,16.5,3.14,20.5,9.82,6,11.18,14,9.68,6-15.92,15.5.29,10,33.71,10,33.71c0,0,38,10.92,38,12.71s-5.5,13.29,3.5,17.29,73.64-11.5,79.32-8.5c5.68,3,15.46-13.68,19.01-14.68,3.56-1,17.67,5.1,20.67,5.89,3,.79,10-20.21,15-23.21s9.7,6,42.85,4c33.15-2,41.2-35,45.67-35s27.84,5,29.66,9,39.77-5,39.77-5c0,0,2.33-13.01,9.05-16.35,11.76-5.85,31.53-2.65,36.77,4.35,8.23,11,44.23,19,45.23,16s-1-18,9-7,33.82,27,45.91,39c12.09,12,39.73,8,39.73,8,0,0-1.64-28,9.36-20s20,24,23,24,33.49-17,39.24-12,9.76,12,19.76,14,29-1.26,35,4.37c6,5.63,35,9.63,35,9.63,0,0,20.43-2.97,24,19.03s61.35-12.34,78.35-14.15c1.74-.19,5.58-18.14,23.48-27.88,7.63-4.15,29.21-1.1,38.58-4.99,10.08-4.18-.36-18.89,8.64-23.01,23.84-10.93,62.81-9.4,70.04-5.39,10.07,5.6,19.01-14.04,32.91-12.63,11.15,1.13,13.69,17.42,23.33,22.67,3.96,2.16,8.77-7.25,13.33-7.33,7.61-.15,14.42,7.79,14.42,7.79,0,0,3.92-22.11,18.92-10.11s25,9,36,1,26-16,37-9,60-52.83,75-43.92c15,8.92,69,32.92,69,32.92,0,0,18.76-23,28.38-17,9.62,6,8.75,15,29.68,19,10.64,2.03,24.45-20.94,37.69-24.51,12.82-3.46,25.25,12.51,25.25,12.51,0,0,9.33-13.16,17.5-22.92s13.17-.08,16.17,9.58,4.83,8.83,11.33,11.33,29-5,35,.5,37.5-9.5,37.5-9.5c0,0,1.45-20.01,7.5-11.51,6.05,8.5,18.92,15.51,31.96,13.01,13.04-2.5,13.54-36.5,31.04-35.5s18,0,24,4.5,10.5,6,19.5,10.5,23.5-20,32-18.5,61.17,37.83,67.83,42.5c6.67,4.67,43.33,5.33,47.33,9.33s10.67,10.67,6,18.67c-2.74,4.7,16.35-7.63,28-4.01,8.2,2.55,9.57,21.58,10.67,22.68,2.67,2.67,33.33,2,34.67,10.67,1.33,8.67,24.67-.67,31.33-1.33,4.94-.49,12.22-19.52,24.67-21.01,4.36-.52,17.23,13.83,20,14.35,10.67,2,26.01,6,33.67,10.67,7.66,4.67,26.99-5.35,38.33-6.01,4.91-.29,16.64-24.51,32.05-17.5,5.83,2.65,6.3,27.17,11.95,33,13.9,14.32,31.5-2.22,31.5,1,0,8,22.95,42.51,37.22,34.51,14.28-8,26.28-10,33.28-7s29.37-2,34.19-6c2.15-1.78,3.72-22.92,16.31-40.01,5.31-7.21,16.77,7.49,23.5,2,13.1-10.7,6.75-38.5,17.2-42,4.24-1.42,19.97,1,31.52-2.5,9.11-2.76,13.39-20.99,19.78-24.91,5.5-3.37,13.59,7.39,15.73,6.53,7.77-3.11,17.4-16.05,27.77-8.02,10.37,8.02,26-9.08,36-15.08s8-30,30-20,34,16,48,4,31.81-38,47.9-24c2.57,2.24,9.8,13.35,20.1,13.49,6.59.09,9.83-17.06,16.33-20,7.18-3.24,17.41,7.64,19.67,6.51,12-6,28.33-30,47.17-32,7.35-.78,8.94-27.93,16.33-39.01,5.64-8.46,14.49,8.64,23.5,5.5C3577.44,23.32,3587.21,0,3600,0v1485.11H0V3.75Z"/>
  </g>
</svg>