<?xml version="1.0" encoding="UTF-8"?>
<svg id="Layer_2" data-name="Layer 2" xmlns="http://www.w3.org/2000/svg" viewBox="0 0 3600.61 1452.21">
  <defs>
    <style>
      .cls-1 {
        fill: #0e472a;
        stroke-width: 0px;
      }
    </style>
  </defs>
  <g id="_2" data-name="2">
    <path class="cls-1" d="m1170.61,516.62c-41.37.5-72.87-5.33-72.88-9.31,0-3.98,26.27-.24,34.31-16.02-7.5,3.5-24.7,4.02-26.22.95-1.52-3.07,8.86-6.44,18.38-16.95,9.53-10.51,12.45-17.1,12.45-17.1,0,0-22.91,7.27-23.78,3.02s18.75-10.88,22.37-28.62c-6.11,2.45-22.11.43-22-4.42.11-4.84,23.09-1.61,34.63-37.88-7.87,6.81-28.34,9.42-29.09,4.42s25.36-16.71,25.08-42.67c-10.61,5.26-23,3.92-22.33.75.67-3.17,8.75-5.42,16.42-21,7.67-15.58,10.6-33.68,10.6-33.68,0,0-15.89,16.7-17.91,13.96s9.62-14.29,15.2-30.92c5.57-16.63,8.04-26.87,10.82-26.87s.31,13.53,10.64,33.86c10.32,20.33,22.32,23.45,21.95,27.83s-15.25,4.62-15.25,4.62c0,0,.86,9.03,8,20.88,7.14,11.84,20.5,13.12,21.13,16.75s-8.95,7.16-15.13,5.5c7.08,14.74,25.97,14.6,27.4,18.52s-14.02,7.66-24.97,5.71c9.69,23.64,32.5,24.02,33.1,28.83.6,4.81-16.4,5.56-26.28,2.81,6.25,27.25,28.63,31.5,28.88,35.75s-13.37,5.65-16.75,5.12c8.62,21.12,30.61,22.04,30.18,26.27s-16.81,5.35-27.93,1.48c9.62,14.5,30.48,18.51,29.2,21.13-2.03,4.11-28.84,6.79-70.21,7.29Z"/>
    <path class="cls-1" d="m1485.6,563.6c-41.37.5-72.92,2.03-72.93-1.96,0-3.98,26.27-.24,34.31-16.02-7.5,3.5-24.7,4.02-26.22.95-1.52-3.07,8.86-6.44,18.38-16.95s12.45-17.1,12.45-17.1c0,0-22.91,7.27-23.78,3.02s18.75-10.88,22.38-28.62c-6.11,2.45-22.11.43-22-4.42.11-4.84,23.09-1.61,34.63-37.88-7.87,6.81-28.34,9.42-29.09,4.42s25.36-16.71,25.08-42.67c-10.61,5.26-23,3.92-22.33.75.67-3.17,8.75-5.42,16.42-21,7.67-15.58,10.6-33.68,10.6-33.68,0,0-15.89,16.7-17.91,13.96s9.62-14.29,15.2-30.92c5.57-16.63,8.04-26.87,10.82-26.87s.31,13.53,10.64,33.86c10.32,20.33,22.32,23.45,21.95,27.83s-15.25,4.62-15.25,4.62c0,0,.86,9.03,8,20.88,7.14,11.84,20.5,13.12,21.12,16.75s-8.95,7.16-15.12,5.5c7.08,14.74,25.97,14.6,27.4,18.52s-14.02,7.66-24.97,5.71c9.69,23.64,32.5,24.02,33.1,28.83.6,4.81-16.4,5.56-26.28,2.81,6.25,27.25,28.62,31.5,28.88,35.75s-13.37,5.65-16.75,5.12c8.62,21.12,30.61,22.04,30.18,26.27s-16.81,5.35-27.93,1.48c9.62,14.5,30.48,18.51,29.2,21.13-2.03,4.11-28.79-.57-70.16-.06Z"/>
    <path class="cls-1" d="m1878.98,620.7c-41.37.5-72.92,2.03-72.93-1.96,0-3.98,26.27-.24,34.31-16.02-7.5,3.5-24.7,4.02-26.22.95-1.52-3.07,8.86-6.44,18.38-16.95,9.53-10.51,12.45-17.1,12.45-17.1,0,0-22.91,7.27-23.78,3.02s18.75-10.88,22.38-28.62c-6.11,2.45-22.11.43-22-4.42.11-4.84,23.09-1.61,34.63-37.88-7.87,6.81-28.34,9.42-29.09,4.42s25.36-16.71,25.08-42.67c-10.61,5.26-23,3.92-22.33.75.67-3.17,8.75-5.42,16.42-21s10.6-33.68,10.6-33.68c0,0-15.89,16.7-17.91,13.96-2.03-2.74,9.62-14.29,15.2-30.92,5.57-16.63,8.04-26.87,10.82-26.87s.31,13.53,10.64,33.86c10.32,20.33,22.32,23.45,21.95,27.83s-15.25,4.62-15.25,4.62c0,0,.86,9.03,8,20.88,7.14,11.84,20.5,13.12,21.12,16.75s-8.95,7.16-15.12,5.5c7.08,14.74,25.97,14.6,27.4,18.52s-14.02,7.66-24.97,5.71c9.69,23.64,32.5,24.02,33.1,28.83.6,4.81-16.4,5.56-26.28,2.81,6.25,27.25,28.62,31.5,28.88,35.75s-13.37,5.65-16.75,5.12c8.62,21.12,30.61,22.04,30.18,26.27s-16.81,5.35-27.93,1.48c9.62,14.5,30.48,18.51,29.2,21.13-2.03,4.11-28.79-.57-70.16-.06Z"/>
    <path class="cls-1" d="m2189.89,719.41c-41.31-2.29-72.89-2.9-72.63-6.88s26.23,1.53,35.31-13.67c-7.72,2.99-24.91,2.34-26.22-.82-1.31-3.16,9.27-5.83,19.49-15.67,10.21-9.84,13.58-16.22,13.58-16.22,0,0-23.35,5.7-23.93,1.4s19.44-9.58,24.26-27.05c-6.26,2.03-22.09-1.07-21.65-5.89.44-4.82,23.15-.05,37.11-35.45-8.31,6.27-28.91,7.49-29.32,2.45-.41-5.04,26.43-14.96,27.91-40.87-10.94,4.53-23.21,2.35-22.33-.76s9.1-4.81,17.8-19.84c8.7-15.03,12.85-32.89,12.85-32.89,0,0-16.98,15.58-18.81,12.71-1.84-2.87,10.57-13.6,17.25-29.82,6.68-16.22,9.83-26.27,12.61-26.08,2.78.19-.6,13.52,8.33,34.5,8.93,20.98,20.69,24.91,20.02,29.24-.67,4.34-15.53,3.58-15.53,3.58,0,0,.25,9.07,6.57,21.37s19.57,14.48,19.95,18.14-9.41,6.54-15.46,4.47c6.07,15.18,24.92,16.33,26.09,20.33,1.16,4-14.5,6.7-25.3,4.01,8.07,24.24,30.8,26.16,31.07,31,.27,4.84-16.74,4.44-26.41,1.03,4.4,27.61,26.43,33.36,26.39,37.62s-13.72,4.73-17.06,3.98c7.18,21.66,29.05,24.06,28.34,28.25-.71,4.19-17.13,4.21-27.97-.41,8.62,15.12,29.16,20.53,27.7,23.05-2.3,3.96-28.68-2.51-69.99-4.8Z"/>
    <path class="cls-1" d="m2558.74,618.87c-38.44.47-67.75,1.88-67.75-1.82s24.41-.22,31.87-14.89c-6.97,3.25-22.95,3.73-24.36.88-1.41-2.85,8.23-5.99,17.08-15.75,8.85-9.76,11.57-15.89,11.57-15.89,0,0-21.28,6.75-22.1,2.8-.81-3.95,17.42-10.1,20.79-26.59-5.68,2.27-20.54.4-20.44-4.1.1-4.5,21.46-1.5,32.18-35.19-7.31,6.33-26.33,8.75-27.03,4.11-.7-4.65,23.56-15.52,23.3-39.64-9.86,4.89-21.37,3.64-20.75.7.62-2.94,8.13-5.03,15.25-19.51,7.12-14.48,9.85-31.29,9.85-31.29,0,0-14.76,15.51-16.64,12.97-1.88-2.55,8.94-13.27,14.12-28.73,5.18-15.45,7.46-24.96,10.05-24.96s.29,12.57,9.88,31.45c9.59,18.88,20.74,21.79,20.39,25.85-.35,4.06-14.17,4.3-14.17,4.3,0,0,.8,8.39,7.43,19.39,6.63,11,19.05,12.19,19.63,15.56.58,3.37-8.31,6.65-14.05,5.11,6.57,13.69,24.13,13.57,25.46,17.2,1.33,3.64-13.02,7.12-23.2,5.31,9,21.97,30.19,22.32,30.75,26.79s-15.24,5.17-24.41,2.61c5.81,25.32,26.59,29.26,26.83,33.21.23,3.95-12.42,5.25-15.56,4.76,8.01,19.63,28.44,20.48,28.04,24.41-.4,3.93-15.61,4.97-25.95,1.37,8.94,13.47,28.32,17.2,27.12,19.63-1.88,3.82-26.74-.53-65.18-.06Z"/>
    <path class="cls-1" d="m2898.42,595.57c-38.44.47-67.75,1.88-67.75-1.82,0-3.7,24.41-.22,31.87-14.89-6.97,3.25-22.95,3.73-24.36.88-1.41-2.85,8.23-5.99,17.08-15.75,8.85-9.76,11.57-15.89,11.57-15.89,0,0-21.28,6.75-22.1,2.8-.81-3.95,17.42-10.1,20.79-26.59-5.68,2.27-20.54.4-20.44-4.1.1-4.5,21.46-1.5,32.18-35.19-7.31,6.33-26.33,8.75-27.03,4.11-.7-4.65,23.56-15.52,23.3-39.64-9.86,4.89-21.37,3.64-20.75.7.62-2.94,8.13-5.03,15.25-19.51,7.12-14.48,9.85-31.29,9.85-31.29,0,0-14.76,15.51-16.64,12.97-1.88-2.55,8.94-13.27,14.12-28.73,5.18-15.45,7.46-24.96,10.05-24.96s.29,12.57,9.88,31.45c9.59,18.88,20.74,21.79,20.39,25.85-.35,4.06-14.17,4.3-14.17,4.3,0,0,.8,8.39,7.43,19.39,6.63,11,19.05,12.19,19.63,15.56.58,3.37-8.31,6.65-14.05,5.11,6.57,13.69,24.13,13.57,25.46,17.2,1.33,3.64-13.02,7.12-23.2,5.31,9,21.97,30.19,22.32,30.75,26.79.55,4.47-15.24,5.17-24.41,2.61,5.81,25.32,26.59,29.26,26.83,33.21.23,3.95-12.42,5.25-15.56,4.76,8.01,19.63,28.44,20.48,28.04,24.41-.4,3.93-15.61,4.97-25.95,1.37,8.94,13.47,28.32,17.2,27.12,19.63-1.88,3.82-26.74-.53-65.18-.06Z"/>
    <path class="cls-1" d="m3051.09,566.05c-34.21.42-60.3,1.68-60.3-1.62,0-3.29,21.72-.2,28.37-13.25-6.2,2.89-20.42,3.32-21.68.79-1.26-2.54,7.33-5.33,15.2-14.02,7.88-8.69,10.3-14.14,10.3-14.14,0,0-18.94,6.01-19.67,2.5s15.5-8.99,18.5-23.67c-5.05,2.02-18.28.35-18.19-3.65s19.1-1.34,28.64-31.32c-6.5,5.63-23.43,7.79-24.05,3.66-.62-4.13,20.97-13.82,20.74-35.28-8.77,4.35-19.02,3.24-18.47.62.55-2.62,7.24-4.48,13.57-17.36,6.34-12.89,8.76-27.85,8.76-27.85,0,0-13.14,13.8-14.81,11.54s7.96-11.81,12.57-25.57c4.61-13.75,6.64-22.22,8.95-22.22s.26,11.19,8.8,27.99c8.54,16.81,18.46,19.39,18.15,23.01s-12.61,3.82-12.61,3.82c0,0,.71,7.47,6.61,17.26,5.9,9.79,16.95,10.85,17.47,13.85.52,3-7.4,5.92-12.51,4.55,5.85,12.19,21.47,12.08,22.66,15.31,1.18,3.24-11.59,6.34-20.64,4.72,8.01,19.55,26.87,19.86,27.36,23.84.49,3.98-13.56,4.6-21.73,2.32,5.17,22.53,23.67,26.05,23.88,29.56.21,3.51-11.06,4.67-13.85,4.24,7.13,17.47,25.31,18.23,24.95,21.72-.36,3.5-13.9,4.43-23.09,1.22,7.96,11.99,25.21,15.31,24.14,17.47-1.68,3.4-23.8-.47-58.01-.05Z"/>
    <path class="cls-1" d="m3294.66,350.74c-38.44.47-67.75,1.88-67.75-1.82,0-3.7,24.41-.22,31.87-14.89-6.97,3.25-22.95,3.73-24.36.88-1.41-2.85,8.23-5.99,17.08-15.75,8.85-9.76,11.57-15.89,11.57-15.89,0,0-21.28,6.75-22.1,2.8s17.42-10.1,20.79-26.59c-5.68,2.27-20.54.4-20.44-4.1s21.46-1.5,32.18-35.19c-7.31,6.33-26.33,8.75-27.03,4.11s23.56-15.52,23.3-39.64c-9.86,4.89-21.37,3.64-20.75.7.62-2.94,8.13-5.03,15.25-19.51,7.12-14.48,9.85-31.29,9.85-31.29,0,0-14.76,15.51-16.64,12.97s8.94-13.27,14.12-28.73c5.18-15.45,7.46-24.96,10.05-24.96s.29,12.57,9.88,31.45c9.59,18.88,20.74,21.79,20.39,25.85s-14.17,4.3-14.17,4.3c0,0,.8,8.39,7.43,19.39,6.63,11,19.05,12.19,19.63,15.56.58,3.37-8.31,6.65-14.05,5.11,6.57,13.69,24.13,13.57,25.46,17.2s-13.02,7.12-23.2,5.31c9,21.97,30.19,22.32,30.75,26.79.55,4.47-15.24,5.17-24.41,2.61,5.81,25.32,26.59,29.26,26.83,33.21.23,3.95-12.42,5.25-15.56,4.76,8.01,19.63,28.44,20.48,28.04,24.41-.4,3.93-15.61,4.97-25.95,1.37,8.94,13.47,28.32,17.2,27.12,19.63-1.88,3.82-26.74-.53-65.18-.06Z"/>
    <path class="cls-1" d="m1317.05,495.35c-41.37.5-72.92,2.03-72.93-1.96,0-3.98,26.27-.24,34.31-16.02-7.5,3.5-24.7,4.02-26.22.95-1.52-3.07,8.86-6.44,18.38-16.95,9.53-10.51,12.45-17.1,12.45-17.1,0,0-22.91,7.27-23.78,3.02s18.75-10.88,22.38-28.62c-6.11,2.45-22.11.43-22-4.42.11-4.84,23.09-1.61,34.63-37.88-7.87,6.81-28.34,9.42-29.09,4.42s25.36-16.71,25.08-42.67c-10.61,5.26-23,3.92-22.33.75.67-3.17,8.75-5.42,16.42-21,7.67-15.58,10.6-33.68,10.6-33.68,0,0-15.89,16.7-17.91,13.96s9.62-14.29,15.2-30.92c5.57-16.63,8.04-26.87,10.82-26.87s.31,13.53,10.64,33.86c10.32,20.33,22.32,23.45,21.95,27.83s-15.25,4.62-15.25,4.62c0,0,.86,9.03,8,20.88,7.14,11.84,20.5,13.12,21.12,16.75s-8.95,7.16-15.12,5.5c7.08,14.74,25.97,14.6,27.4,18.52s-14.02,7.66-24.97,5.71c9.69,23.64,32.5,24.02,33.1,28.83.6,4.81-16.4,5.56-26.28,2.81,6.25,27.25,28.62,31.5,28.88,35.75s-13.37,5.65-16.75,5.12c8.62,21.12,30.61,22.04,30.18,26.27s-16.81,5.35-27.93,1.48c9.62,14.5,30.48,18.51,29.2,21.13-2.03,4.11-28.79-.57-70.16-.06Z"/>
    <path class="cls-1" d="m304.65,346.38c-41.37.5-72.92,2.03-72.93-1.96,0-3.98,26.27-.24,34.31-16.02-7.5,3.5-24.7,4.02-26.22.95-1.52-3.07,8.86-6.44,18.38-16.95,9.53-10.51,12.45-17.1,12.45-17.1,0,0-22.91,7.27-23.78,3.02s18.75-10.88,22.38-28.62c-6.11,2.45-22.11.43-22-4.42.11-4.84,23.09-1.61,34.63-37.88-7.87,6.81-28.34,9.42-29.09,4.42s25.36-16.71,25.08-42.67c-10.61,5.26-23,3.92-22.33.75.67-3.17,8.75-5.42,16.42-21,7.67-15.58,10.6-33.68,10.6-33.68,0,0-15.89,16.7-17.91,13.96-2.03-2.74,9.62-14.29,15.2-30.92,5.57-16.63,8.04-26.87,10.82-26.87s.31,13.53,10.64,33.86c10.32,20.33,22.32,23.45,21.95,27.83s-15.25,4.62-15.25,4.62c0,0,.86,9.03,8,20.88s20.5,13.12,21.12,16.75-8.95,7.16-15.12,5.5c7.08,14.74,25.97,14.6,27.4,18.52,1.43,3.91-14.02,7.66-24.97,5.71,9.69,23.64,32.5,24.02,33.1,28.83.6,4.81-16.4,5.56-26.28,2.81,6.25,27.25,28.62,31.5,28.87,35.75s-13.37,5.65-16.75,5.12c8.62,21.12,30.61,22.04,30.18,26.27s-16.81,5.35-27.93,1.48c9.62,14.5,30.48,18.51,29.2,21.13-2.03,4.11-28.79-.57-70.16-.06Z"/>
    <path class="cls-1" d="m223.31,373.1c-41.37.5-72.92,2.03-72.93-1.96,0-3.98,26.27-.24,34.31-16.02-7.5,3.5-24.7,4.02-26.22.95-1.52-3.07,8.86-6.44,18.38-16.95s12.45-17.1,12.45-17.1c0,0-22.91,7.27-23.78,3.02s18.75-10.88,22.38-28.62c-6.11,2.45-22.11.43-22-4.42.11-4.84,23.09-1.61,34.63-37.88-7.87,6.81-28.34,9.42-29.09,4.42s25.36-16.71,25.08-42.67c-10.61,5.26-23,3.92-22.33.75.67-3.17,8.75-5.42,16.42-21,7.67-15.58,10.6-33.68,10.6-33.68,0,0-15.89,16.7-17.91,13.96-2.03-2.74,9.62-14.29,15.2-30.92,5.57-16.63,8.04-26.87,10.82-26.87s.31,13.53,10.64,33.86c10.32,20.33,22.32,23.45,21.95,27.83s-15.25,4.62-15.25,4.62c0,0,.86,9.03,8,20.88,7.14,11.84,20.5,13.12,21.12,16.75s-8.95,7.16-15.12,5.5c7.08,14.74,25.97,14.6,27.4,18.52s-14.02,7.66-24.97,5.71c9.69,23.64,32.5,24.02,33.1,28.83.6,4.81-16.4,5.56-26.28,2.81,6.25,27.25,28.62,31.5,28.88,35.75s-13.37,5.65-16.75,5.12c8.62,21.12,30.61,22.04,30.18,26.27s-16.81,5.35-27.93,1.48c9.62,14.5,30.48,18.51,29.2,21.13-2.03,4.11-28.79-.57-70.16-.06Z"/>
    <path class="cls-1" d="m75.9,317.85c-41.37.5-72.92,2.03-72.93-1.96,0-3.98,26.27-.24,34.31-16.02-7.5,3.5-24.7,4.02-26.22.95-1.52-3.07,8.86-6.44,18.38-16.95,9.53-10.51,12.45-17.1,12.45-17.1,0,0-22.91,7.27-23.78,3.02s18.75-10.88,22.38-28.62c-6.11,2.45-22.11.43-22-4.42.11-4.84,23.09-1.61,34.63-37.88-7.87,6.81-28.34,9.42-29.09,4.42s25.36-16.71,25.08-42.67c-10.61,5.26-23,3.92-22.33.75.67-3.17,8.16-6.33,15.82-21.92,7.67-15.58,4.88-24,4.88-24,0,0-9.57,7.93-11.59,5.19-2.03-2.74,9.62-14.29,15.2-30.92,5.57-16.63,8.04-26.87,10.82-26.87s.31,13.53,10.64,33.86,22.32,23.45,21.95,27.83-15.25,4.62-15.25,4.62c0,0,.86,9.03,8,20.88s20.5,13.12,21.12,16.75-8.95,7.16-15.12,5.5c7.08,14.74,25.97,14.6,27.4,18.52,1.43,3.91-14.02,7.66-24.97,5.71,9.69,23.64,32.5,24.02,33.1,28.83.6,4.81-16.4,5.56-26.28,2.81,6.25,27.25,28.62,31.5,28.88,35.75s-13.37,5.65-16.75,5.12c8.62,21.12,30.61,22.04,30.18,26.27s-16.81,5.35-27.93,1.48c9.62,14.5,30.48,18.51,29.2,21.13-2.03,4.11-28.79-.57-70.16-.06Z"/>
    <path class="cls-1" d="m470.06,354.97c-41.37.5-72.92,2.03-72.93-1.96s26.27-.24,34.31-16.02c-7.5,3.5-32.79,5.03-34.31,1.97-1.52-3.07,16.95-7.46,26.48-17.97,9.53-10.51,12.45-17.1,12.45-17.1,0,0-22.91,7.27-23.78,3.02s18.75-10.88,22.38-28.62c-6.11,2.45-25.91,1.77-25.8-3.08s26.9-2.95,38.44-39.22c-7.87,6.81-19.42,6.22-20.17,1.22s16.44-13.51,16.16-39.47c-10.61,5.26-23,3.92-22.33.75.67-3.17,8.75-5.42,16.42-21,7.67-15.58,10.6-33.68,10.6-33.68,0,0-15.89,16.7-17.91,13.96-2.03-2.74,9.62-14.29,15.2-30.92,5.57-16.63,8.04-26.87,10.82-26.87s.31,13.53,10.64,33.86c10.32,20.33,22.32,23.45,21.95,27.83s-15.25,4.62-15.25,4.62c0,0,.86,9.03,8,20.88,7.14,11.84,20.5,13.12,21.12,16.75s-8.95,7.16-15.12,5.5c7.08,14.74,25.97,14.6,27.4,18.52s-14.02,7.66-24.97,5.71c9.69,23.64,32.5,24.02,33.1,28.83.6,4.81-16.4,5.56-26.28,2.81,6.25,27.25,28.62,31.5,28.88,35.75s-13.37,5.65-16.75,5.12c8.62,21.12,30.61,22.04,30.18,26.27-.43,4.23-16.81,5.35-27.93,1.48,9.62,14.5,30.48,18.51,29.2,21.13-2.03,4.11-28.79-.57-70.16-.06Z"/>
    <path class="cls-1" d="m975.81,593.62c-41.37.5-72.92,2.03-72.93-1.96,0-3.98,26.27-.24,34.31-16.02-7.5,3.5-24.7,4.02-26.22.95-1.52-3.07,8.86-6.44,18.38-16.95s12.45-17.1,12.45-17.1c0,0-22.91,7.27-23.78,3.02s18.75-10.88,22.37-28.62c-6.11,2.45-22.11.43-22-4.42.11-4.84,23.09-1.61,34.63-37.88-7.87,6.81-28.34,9.42-29.09,4.42s25.36-16.71,25.08-42.67c-10.61,5.26-23,3.92-22.33.75.67-3.17,8.75-5.42,16.42-21,7.67-15.58,10.6-33.68,10.6-33.68,0,0-15.89,16.7-17.91,13.96s9.62-14.29,15.2-30.92c5.57-16.63,8.04-26.87,10.82-26.87s.31,13.53,10.64,33.86c10.32,20.33,22.32,23.45,21.95,27.83s-15.25,4.62-15.25,4.62c0,0,.86,9.03,8,20.88,7.14,11.84,20.5,13.12,21.12,16.75s-8.95,7.16-15.12,5.5c7.08,14.74,25.97,14.6,27.4,18.52s-14.02,7.66-24.97,5.71c9.69,23.64,32.5,24.02,33.1,28.83.6,4.81-16.4,5.56-26.28,2.81,6.25,27.25,28.62,31.5,28.87,35.75s-13.37,5.65-16.75,5.12c8.62,21.12,30.61,22.04,30.18,26.27s-16.81,5.35-27.93,1.48c9.62,14.5,30.48,18.51,29.2,21.13-2.03,4.11-28.79-.57-70.16-.06Z"/>
    <g>
      <path class="cls-1" d="m390.48,427.61s4.35-39.27,6.07-69.44c1.71-30.17.46-76.13,1.54-102.55.44-10.83,1.48-29.07,1.14-47.23-.35-18.91,1.42-39.14,1.48-42.47.07-3.33,1.38-8.38,3.18-5.35,1.8,3.03-.05,72.7,1.12,95.05,1.17,22.34.59,82.22,0,103.95-.59,21.72-2.35,68.04-2.35,68.04h-12.18Z"/>
      <path class="cls-1" d="m366.71,198.88c-2.05,2.95,6.6,9.61,13.01,11.61-3.82,2.3-10.99,1.64-10.68,4.4.31,2.75,15.98,4.17,15.98,4.17,0,0-7.3,2.71-6.15,6.44s16.96,3.42,23.58-4.11c0,0-2.36,21.41.32,25.26,2.67,3.85,13.03,5.59,14.66,3.87,1.63-1.72-5.03-4.14-6.66-9.88,17.22.36,21.17-6.4,19.83-9.23-1.33-2.83-11.25-.42-11.25-.42,0,0,6.75-3.48,5.38-6.95-1.38-3.47-10.7.91-13.8-8.51,8.19-1.08,10.29-4.49,9.23-6.56-1.06-2.06-16.4-3.65-16.4-3.65,0,0-1.14-6.87-1.6-7.57,0,0-7.26,2.17-17.31,2.24-10.05.07-16.1-4.04-18.15-1.09Z"/>
      <path class="cls-1" d="m401.18,265.44c-10.45,13.24-20.74,8.78-21.83,12.19-1.08,3.42,6.08,6.08,6.08,6.08-4.58,4.33-15.7,4.42-16.64,7.58-.94,3.17,4.69,4.14,6.06,4.08-1.37,3.13-8.94,4.06-8.45,6.92.49,2.85,14.93,1.33,14.93,1.33,0,0-10.88,7.18-10.87,10.28,0,3.1,9.94.97,14.99-1.53-1.17,12.17-14.08,15.74-13.41,18.91s11.24,1.48,15.93-2.82c-.18,2.59-1.22,6.47,1.51,7.1s10.81-8.79,13.92-14.94c0,0-2.72-25.06.88-29.07,7.85,7.89,19.15,5.89,19.62,3.35.47-2.54-8.71-6.06-10.03-10.43,0,0,5.9,1.2,6.97-.4,1.08-1.6-4.8-8.38-4.8-8.38,0,0,8.39-6.62,6.85-8.53-1.54-1.91-9.9,4.96-21.69-1.74Z"/>
      <path class="cls-1" d="m399.68,340.76c-11.2,12.93-21.58,7.72-22.51,10.37-.93,2.65,7.72,5.24,7.72,5.24,0,0-12.78.47-13.77,2.98-.99,2.51,10.9,4.46,10.9,4.46,0,0-5.78,2.82-5.24,4.55.54,1.73,16.08.36,24.07-9.66,4.83,4.96,13.11,5.49,14.06,3.7.95-1.78-3.58-4.47-4.08-6.16,9.12-.06,13.13-6.5,11.87-8.38s-9.31,1.06-9.31,1.06c0,0,2.37-4.96.59-6.11-1.78-1.14-5.3,3.35-11.47,2.05-1.46-.41-.34-3.95-2.84-4.11Z"/>
      <path class="cls-1" d="m397.92,365.22s-2.74,5.59-16.1,7.94c-13.36,2.35-22.85-1.74-23.43.57s4.46,5.51,9.55,5.95c-2.54.59-6.61.86-6.37,2.82.24,1.96,9.29,6.57,18.81,4.05-6.84,7.62-14.15,7.14-13.57,11,.57,3.87,17.24-.05,17.24-.05,0,0-1.07,4.39,1.26,5.23,2.33.85,14.29-13.45,14.29-13.45,0,0,.77,5.18,2.38,6.09,8.02,3.14,18.95.11,18.36-2.28-.41-1.66-7.71-5.16-7.71-5.16,0,0,8.64.15,8.74-2.77s-8.03-5.71-8.03-5.71c0,0,6.71-3.31,5.05-6.51s-7.66,1.38-14.43-4.95c-2.2-1.99-6.02-2.79-6.02-2.79Z"/>
    </g>
    <g>
      <path class="cls-1" d="m1058,589.07s4.35-39.27,6.07-69.44c1.71-30.17.46-76.13,1.54-102.55.44-10.83,1.48-29.07,1.14-47.23-.35-18.91,1.42-39.14,1.48-42.47.07-3.33,1.38-8.38,3.18-5.35,1.8,3.03-.05,72.7,1.12,95.05,1.17,22.34.59,82.22,0,103.95-.59,21.72-2.35,68.04-2.35,68.04h-12.18Z"/>
      <path class="cls-1" d="m1034.22,360.33c-2.05,2.95,6.6,9.61,13.01,11.61-3.82,2.3-10.99,1.64-10.68,4.4.31,2.75,15.98,4.17,15.98,4.17,0,0-7.3,2.71-6.15,6.44,1.15,3.73,16.96,3.42,23.58-4.11,0,0-2.36,21.41.32,25.26,2.67,3.85,13.03,5.59,14.66,3.87s-5.03-4.14-6.66-9.88c17.22.36,21.17-6.4,19.83-9.23-1.33-2.83-11.25-.42-11.25-.42,0,0,6.75-3.48,5.38-6.95-1.38-3.47-10.7.91-13.8-8.51,8.19-1.08,10.29-4.49,9.23-6.56-1.06-2.06-16.4-3.65-16.4-3.65,0,0-1.14-6.87-1.6-7.57,0,0-7.26,2.17-17.31,2.24-10.05.07-16.1-4.04-18.15-1.09Z"/>
      <path class="cls-1" d="m1068.7,426.9c-10.45,13.24-20.74,8.78-21.83,12.19-1.08,3.42,6.08,6.08,6.08,6.08-4.58,4.33-15.7,4.42-16.64,7.58-.94,3.17,4.69,4.14,6.06,4.08-1.37,3.13-8.94,4.06-8.45,6.92.49,2.85,14.93,1.33,14.93,1.33,0,0-10.88,7.18-10.87,10.28,0,3.1,9.94.97,14.99-1.53-1.17,12.17-14.08,15.74-13.41,18.91s11.24,1.48,15.93-2.82c-.18,2.59-1.22,6.47,1.51,7.1s10.81-8.79,13.92-14.94c0,0-2.72-25.06.88-29.07,7.85,7.89,19.15,5.89,19.62,3.35.47-2.54-8.71-6.06-10.03-10.43,0,0,5.9,1.2,6.97-.4,1.08-1.6-4.8-8.38-4.8-8.38,0,0,8.39-6.62,6.85-8.53-1.54-1.91-9.9,4.96-21.69-1.74Z"/>
      <path class="cls-1" d="m1067.2,502.21c-11.2,12.93-21.58,7.72-22.51,10.37-.93,2.65,7.72,5.24,7.72,5.24,0,0-12.78.47-13.77,2.98-.99,2.51,10.9,4.46,10.9,4.46,0,0-5.78,2.82-5.24,4.55.54,1.73,16.08.36,24.07-9.66,4.83,4.96,13.11,5.49,14.06,3.7.95-1.78-3.58-4.47-4.08-6.16,9.12-.06,13.13-6.5,11.87-8.38-1.25-1.88-9.31,1.06-9.31,1.06,0,0,2.37-4.96.59-6.11-1.78-1.14-5.3,3.35-11.47,2.05-1.46-.41-.34-3.95-2.84-4.11Z"/>
      <path class="cls-1" d="m1065.44,526.67s-2.74,5.59-16.1,7.94c-13.36,2.35-22.85-1.74-23.43.57-.59,2.31,4.46,5.51,9.55,5.95-2.54.59-6.61.86-6.37,2.82.24,1.96,9.29,6.57,18.81,4.05-6.84,7.62-14.15,7.14-13.57,11,.57,3.87,17.24-.05,17.24-.05,0,0-1.07,4.39,1.26,5.23,2.33.85,14.29-13.45,14.29-13.45,0,0,.77,5.18,2.38,6.09,8.02,3.14,18.95.11,18.36-2.28-.41-1.66-7.71-5.16-7.71-5.16,0,0,8.64.15,8.74-2.77s-8.03-5.71-8.03-5.71c0,0,6.71-3.31,5.05-6.51s-7.66,1.38-14.43-4.95c-2.2-1.99-6.02-2.79-6.02-2.79Z"/>
    </g>
    <g>
      <path class="cls-1" d="m3195.99,444.36s4.35-39.27,6.07-69.44c1.71-30.17.46-76.13,1.54-102.55.44-10.83,1.48-29.07,1.14-47.23-.35-18.91,1.42-39.14,1.48-42.47.07-3.33,1.38-8.38,3.18-5.35,1.8,3.03-.05,72.7,1.12,95.05,1.17,22.34.59,82.22,0,103.95-.59,21.72-2.35,68.04-2.35,68.04h-12.18Z"/>
      <path class="cls-1" d="m3172.21,215.63c-2.05,2.95,6.6,9.61,13.01,11.61-3.82,2.3-10.99,1.64-10.68,4.4.31,2.75,15.98,4.17,15.98,4.17,0,0-7.3,2.71-6.15,6.44,1.15,3.73,16.96,3.42,23.58-4.11,0,0-2.36,21.41.32,25.26,2.67,3.85,13.03,5.59,14.66,3.87s-5.03-4.14-6.66-9.88c17.22.36,21.17-6.4,19.83-9.23-1.33-2.83-11.25-.42-11.25-.42,0,0,6.75-3.48,5.38-6.95-1.38-3.47-10.7.91-13.8-8.51,8.19-1.08,10.29-4.49,9.23-6.56-1.06-2.06-16.4-3.65-16.4-3.65,0,0-1.14-6.87-1.6-7.57,0,0-7.26,2.17-17.31,2.24-10.05.07-16.1-4.04-18.15-1.09Z"/>
      <path class="cls-1" d="m3206.69,282.2c-10.45,13.24-20.74,8.78-21.83,12.19-1.08,3.42,6.08,6.08,6.08,6.08-4.58,4.33-15.7,4.42-16.64,7.58s4.69,4.14,6.06,4.08c-1.37,3.13-8.94,4.06-8.45,6.92.49,2.85,14.93,1.33,14.93,1.33,0,0-10.88,7.18-10.87,10.28,0,3.1,9.94.97,14.99-1.53-1.17,12.17-14.08,15.74-13.41,18.91s11.24,1.48,15.93-2.82c-.18,2.59-1.22,6.47,1.51,7.1s10.81-8.79,13.92-14.94c0,0-2.72-25.06.88-29.07,7.85,7.89,19.15,5.89,19.62,3.35.47-2.54-8.71-6.06-10.03-10.43,0,0,5.9,1.2,6.97-.4,1.08-1.6-4.8-8.38-4.8-8.38,0,0,8.39-6.62,6.85-8.53-1.54-1.91-9.9,4.96-21.69-1.74Z"/>
      <path class="cls-1" d="m3205.19,357.51c-11.2,12.93-21.58,7.72-22.51,10.37-.93,2.65,7.72,5.24,7.72,5.24,0,0-12.78.47-13.77,2.98-.99,2.51,10.9,4.46,10.9,4.46,0,0-5.78,2.82-5.24,4.55.54,1.72,16.08.36,24.07-9.66,4.83,4.96,13.11,5.49,14.06,3.7.95-1.78-3.58-4.47-4.08-6.16,9.12-.06,13.13-6.5,11.88-8.38-1.25-1.88-9.31,1.06-9.31,1.06,0,0,2.37-4.96.59-6.11s-5.3,3.35-11.47,2.05c-1.46-.41-.34-3.95-2.84-4.11Z"/>
      <path class="cls-1" d="m3203.43,381.97s-2.74,5.59-16.1,7.94c-13.36,2.35-22.85-1.74-23.43.57s4.46,5.51,9.55,5.95c-2.54.59-6.61.86-6.37,2.82.24,1.96,9.29,6.57,18.81,4.05-6.84,7.62-14.15,7.14-13.57,11,.57,3.87,17.24-.05,17.24-.05,0,0-1.07,4.39,1.26,5.23,2.33.85,14.29-13.45,14.29-13.45,0,0,.77,5.18,2.38,6.09,8.02,3.14,18.95.11,18.36-2.28-.41-1.66-7.71-5.16-7.71-5.16,0,0,8.64.15,8.74-2.77s-8.03-5.71-8.03-5.71c0,0,6.71-3.31,5.05-6.51s-7.66,1.38-14.43-4.95c-2.2-1.99-6.02-2.79-6.02-2.79Z"/>
    </g>
    <path class="cls-1" d="m656.98,473.67c3.08-4.57-14.68-10.96-14.16-22.57,11.08,7.44,28.12,10.18,28.69,5.61.57-4.57-31.59-13.4-32.11-46.99,3.85,3.03,16.29,4.2,16.84.09s-26.09-19.67-24.8-46.51c4,4.93,15.19,13.21,18.93,10.37,3.74-2.84-7.04-14.87-7.04-14.87,0,0,21.5,3.85,22.42-2.02s-26.97-8.74-34.46-39.93c3.96,3.26,20.4,10.11,22.46,6,2.05-4.11-8.73-7.66-16.44-23.32s-8.92-30.63-8.92-30.63c0,0,17.28,21.59,20.51,18.85,3.23-2.74-10.42-19.05-15.56-38.62-5.14-19.57-5.27-49.66-8.66-50.1-3.39-.44-2.57,10.91-6.64,17.17-4.07,6.26-11.89,5.09-12.6,7.53-.72,2.45,5.06,4.51,9.69,4.21-2.2,27.98-31.9,30.32-32.34,34.56-.44,4.24,13.14,5.02,13.14,5.02,0,0-12.99,6.91-11.74,9.65,1.25,2.74,14.71-.16,14.71-.16,0,0-2.75,10.9-10.13,18.3-9.18,9.21-19.92,12.33-19.04,15.85s16.02,4.31,24.66-1.32c-8.31,17.86-21.43,19.65-20.51,22.82s10.38,2.19,12.26,1.89c-7.3,8.81-18.05,7.76-18.31,10.83-.26,3.07,12.95,5.81,24.39.32-2.9,17.68-28.44,23.36-27.69,27.24.75,3.88,15.06,3,20.57.21-5.89,23.92-39.35,32.73-37.88,37.36,1.47,4.63,24.36,1.76,28.99-.46-10.71,19.9-39.55,21.41-38.09,25.64s18.27,3.13,23.19,1.7c-6.24,7.31-16.27,9.26-15.44,12.03.83,2.78,11.92,1.54,15.36-.16-2.79,16.24-32.51,19.44-32.51,24.4s37.41-.42,70.74-1.17c30.69-.69,54.45,5.74,57.53,1.17Z"/>
    <path class="cls-1" d="m658.41,530.73c-3.08-4.57,14.68-10.96,14.16-22.57-11.08,7.44-28.12,10.18-28.69,5.61-.57-4.57,31.59-13.4,32.11-46.99-3.85,3.03-16.29,4.2-16.84.09s26.09-19.67,24.8-46.51c-4,4.93-15.19,13.21-18.93,10.37-3.74-2.84,7.04-14.87,7.04-14.87,0,0-21.5,3.85-22.42-2.02-.92-5.87,26.97-8.74,34.46-39.93-3.96,3.26-20.4,10.11-22.46,6-2.05-4.11,8.73-7.66,16.44-23.32,7.71-15.66,8.92-30.63,8.92-30.63,0,0-17.28,21.59-20.51,18.85-3.23-2.74,10.42-19.05,15.56-38.62,5.14-19.57,5.27-49.66,8.66-50.1,3.39-.44,2.57,10.91,6.64,17.17,4.07,6.26,11.89,5.09,12.6,7.53s-5.06,4.51-9.69,4.21c2.2,27.98,31.9,30.32,32.34,34.56.44,4.24-13.14,5.02-13.14,5.02,0,0,12.99,6.91,11.74,9.65-1.25,2.74-14.71-.16-14.71-.16,0,0,2.75,10.9,10.13,18.3,9.18,9.21,19.92,12.33,19.04,15.85s-16.02,4.31-24.66-1.32c8.31,17.86,21.43,19.65,20.51,22.82s-10.38,2.19-12.26,1.89c7.3,8.81,18.05,7.76,18.31,10.83.26,3.07-12.95,5.81-24.39.32,2.9,17.68,28.44,23.36,27.69,27.24-.75,3.88-15.06,3-20.57.21,5.89,23.92,39.35,32.73,37.88,37.36-1.47,4.63-24.36,1.76-28.99-.46,10.71,19.9,39.55,21.41,38.09,25.64-1.47,4.23-18.27,3.13-23.19,1.7,6.24,7.31,16.27,9.26,15.44,12.03-.83,2.78-11.92,1.54-15.36-.16,2.79,16.24,32.51,19.44,32.51,24.4s-37.41-.42-70.74-1.17c-30.69-.69-54.45,5.74-57.53,1.17Z"/>
    <g>
      <path class="cls-1" d="m843.63,257.93c-3.94,0-.84,112.77,1.52,140.55,2.36,27.78-3.62,129.15-3.62,129.15h11.79c-.04-.08,1.22-103.73-1.1-129.15-2.47-27.06-4.66-140.55-8.6-140.55Z"/>
      <path class="cls-1" d="m843.81,316.28s-17.09-12.86-19.39-11.18,8.89,14.83,8.89,14.83c0,0-8.99-.98-8.93,1.38.06,2.36,16.15,8.91,16.15,8.91,0,0-12.03,3.37-11.57,5.5s12.03,2.07,16.32.12c24.8,2.4,28.45-13.25,27.2-15.19s-9.29,5.17-11.55,5.24,1.99-4.12-.7-5.18c-2.69-1.06-12.47,3.61-12.47,3.61l-3.95-8.04Z"/>
      <path class="cls-1" d="m845.86,341.17c-7.83,4.62-17.62,2.09-18.67,3.83-1.06,1.74,4.19,6.29,12.19,5.5,0,0-7.7,3.32-7.11,4.95.59,1.63,4.48,1.43,6.7.85-5.36,6-17.56,7-18.52,9.62-.96,2.62,4.97,6.06,15.83,3.54-.75,6.3-7.84,12.33-4.96,14.06,2.88,1.73,11.66-4.92,16.05-14.81,16.76,4.41,24.74-.75,24.04-3.17-.71-2.42-9.69-2.27-9.69-2.27,0,0,14.31-10.81,13.44-13.23-.87-2.42-12.63,4.2-12.63,4.2,0,0,4.31-6.29,2.78-7.25s-7.61,6.46-17.41,6.91c-2.68-1.49-1.28-4.95.97-5.78,9.42-2.25,14.88-8.98,13.84-10.47-1.05-1.49-8.84,2.51-16.84,3.51Z"/>
      <path class="cls-1" d="m845.96,400.39c-2.85,15.82-17.16,17.29-17.29,20.93s11.66.72,14.23-.1c-10.59,10.43-29.48,9.25-30.36,12.68s12.78,4.27,12.78,4.27c0,0-5.64,1.29-5.32,3.61s12.85,2.93,12.85,2.93c0,0-16.53.08-17.79,2.83s15.24,10.89,34.27,9.59c19.02-1.3,26.89-12.54,25.15-14.55-1.74-2.01-11.86-.98-11.86-.98,0,0,10.99-3.46,9.8-6.02-1.19-2.56-13.31,2.77-22.77-.53-1.73-.78.1-10.96,2.77-10.22,17.64,5.64,29.87-1,29.87-3.88s-12.47-2.29-12.47-2.29c0,0,17.4-10.34,15.47-13.02-1.94-2.69-15.56,4.88-24.81-.81,6-1.69,11.75-5.98,10.52-7.78-1.22-1.8-14.01,2.84-22.59-3.14,0,0-1.96,3.73-2.46,6.48Z"/>
      <path class="cls-1" d="m846.64,478.8c-5.43,12.77-27.01,12.97-27.69,16.05-.69,3.08,7.09,5.49,12.22,4.86.62,2.38-19.06,9.08-19.07,12.07s22.42.52,22.42.52c0,0-3.44,4.62-2.41,6.92s15.65-4.21,15.65-4.21l5.57,12.62s22.08.19,22.18-2.57c.1-2.76-11.6-1.29-17.12-9.46,2.74-1.03,6.85-1.57,7.24-3.96.39-2.4-4.55-1.72-8.02-3.41,14.22-2.09,19.28-7.9,18-9.76-1.27-1.86-5.1-.58-12.2-1.26,2.42-1.07,7.78-2.84,6.75-5.19-1.03-2.35-10.87-1.8-12.18-9.36,4.8,1.76,12.63-.42,12.59-2.92-.05-2.5-12.57-3.13-17.17-12.72l-5.64,2.83s.79,6.37-1.12,8.96Z"/>
    </g>
    <g>
      <path class="cls-1" d="m2255.03,411.9c-3.94,0-.84,112.77,1.52,140.55,2.36,27.78-3.62,129.15-3.62,129.15h11.79c-.04-.08,1.22-103.73-1.1-129.15-2.47-27.06-4.66-140.55-8.6-140.55Z"/>
      <path class="cls-1" d="m2255.2,470.25s-17.09-12.86-19.39-11.18,8.89,14.83,8.89,14.83c0,0-8.99-.98-8.93,1.38.06,2.36,16.15,8.91,16.15,8.91,0,0-12.03,3.37-11.57,5.5s12.03,2.07,16.32.12c24.8,2.4,28.45-13.25,27.2-15.19s-9.29,5.17-11.55,5.24,1.99-4.12-.7-5.18-12.47,3.61-12.47,3.61l-3.95-8.04Z"/>
      <path class="cls-1" d="m2257.25,495.14c-7.83,4.62-17.62,2.09-18.67,3.83-1.06,1.74,4.19,6.29,12.19,5.5,0,0-7.7,3.32-7.11,4.95.59,1.63,4.48,1.43,6.7.85-3.96,9.15-17.56,7-18.52,9.62-.96,2.62,4.97,6.06,15.83,3.54-.75,6.3-7.84,12.33-4.96,14.06,2.88,1.73,11.66-4.92,16.05-14.81,16.76,4.41,24.74-.75,24.04-3.17-.71-2.42-9.69-2.27-9.69-2.27,0,0,14.31-10.81,13.44-13.23-.88-2.42-12.63,4.2-12.63,4.2,0,0,4.31-6.29,2.78-7.25s-7.61,6.46-17.41,6.91c-2.68-1.49-1.28-4.95.97-5.78,9.42-2.25,14.88-8.98,13.84-10.47-1.05-1.49-8.84,2.51-16.84,3.51Z"/>
      <path class="cls-1" d="m2257.35,554.36c-2.85,15.82-17.16,17.29-17.29,20.93s11.66.72,14.23-.1c-10.59,10.43-29.48,9.25-30.36,12.68s12.78,4.27,12.78,4.27c0,0-5.64,1.29-5.32,3.61s12.85,2.93,12.85,2.93c0,0-16.53.08-17.79,2.83s15.24,10.89,34.27,9.59,26.89-12.54,25.15-14.55-11.86-.98-11.86-.98c0,0,10.99-3.46,9.8-6.02s-13.31,2.77-22.77-.53c-1.73-.78.1-10.96,2.77-10.22,17.64,5.64,29.88-1,29.88-3.88s-12.47-2.29-12.47-2.29c0,0,17.4-10.34,15.47-13.02s-15.56,4.88-24.81-.81c6-1.69,11.75-5.98,10.52-7.78-1.22-1.8-14.01,2.84-22.59-3.14,0,0-1.96,3.73-2.46,6.48Z"/>
      <path class="cls-1" d="m2258.04,632.77c-5.43,12.77-27.01,12.97-27.69,16.05-.68,3.08,7.09,5.49,12.22,4.86.62,2.38-19.06,9.08-19.07,12.07s22.42.52,22.42.52c0,0-3.44,4.62-2.41,6.92s15.65-4.21,15.65-4.21l5.57,12.62s22.08.19,22.18-2.57c.1-2.76-11.6-1.29-17.12-9.46,2.74-1.03,6.85-1.57,7.24-3.96.39-2.4-4.55-1.72-8.02-3.41,14.22-2.09,19.28-7.9,18-9.76-1.27-1.86-5.1-.58-12.2-1.26,2.42-1.07,7.78-2.84,6.75-5.19-1.03-2.35-10.87-1.8-12.18-9.36,4.8,1.76,12.63-.42,12.59-2.92-.05-2.5-12.57-3.13-17.17-12.72l-5.64,2.83s.79,6.37-1.12,8.96Z"/>
    </g>
    <g>
      <path class="cls-1" d="m2645.65,389.95c-3.94,0-.84,112.77,1.52,140.55,2.36,27.78-3.62,129.15-3.62,129.15h11.79c-.04-.08,1.22-103.73-1.1-129.15-2.47-27.06-4.66-140.55-8.6-140.55Z"/>
      <path class="cls-1" d="m2645.82,448.3s-17.09-12.86-19.39-11.18,8.89,14.83,8.89,14.83c0,0-8.99-.98-8.93,1.38.06,2.36,16.15,8.91,16.15,8.91,0,0-12.03,3.37-11.57,5.5s12.03,2.07,16.32.12c24.8,2.4,28.45-13.25,27.2-15.19s-9.29,5.17-11.55,5.24,1.99-4.12-.7-5.18-12.47,3.61-12.47,3.61l-3.95-8.04Z"/>
      <path class="cls-1" d="m2647.87,473.19c-7.83,4.62-17.62,2.09-18.67,3.83-1.06,1.74,4.19,6.29,12.19,5.5,0,0-7.7,3.32-7.11,4.95.59,1.63,4.48,1.43,6.7.85-3.96,9.15-17.56,7-18.52,9.62-.96,2.62,4.97,6.06,15.83,3.54-.75,6.3-7.84,12.33-4.96,14.06,2.88,1.73,11.66-4.92,16.05-14.81,16.76,4.41,24.74-.75,24.04-3.17-.71-2.42-9.69-2.27-9.69-2.27,0,0,14.31-10.81,13.44-13.23-.88-2.42-12.63,4.2-12.63,4.2,0,0,4.31-6.29,2.78-7.25s-7.61,6.46-17.41,6.91c-2.68-1.49-1.28-4.95.97-5.78,9.42-2.25,14.88-8.98,13.84-10.47-1.05-1.49-8.84,2.51-16.84,3.51Z"/>
      <path class="cls-1" d="m2647.97,532.41c-2.85,15.82-17.16,17.29-17.29,20.93s11.66.72,14.23-.1c-10.59,10.43-29.48,9.25-30.36,12.68s12.78,4.27,12.78,4.27c0,0-5.64,1.29-5.32,3.61s12.85,2.93,12.85,2.93c0,0-16.53.08-17.79,2.83s15.24,10.89,34.27,9.59,26.89-12.54,25.15-14.55c-1.74-2.01-11.86-.98-11.86-.98,0,0,10.99-3.46,9.8-6.02s-13.31,2.77-22.77-.53c-1.73-.78.1-10.96,2.77-10.22,17.64,5.64,29.88-1,29.88-3.88s-12.47-2.29-12.47-2.29c0,0,17.4-10.34,15.47-13.02s-15.56,4.88-24.81-.81c6-1.69,11.75-5.98,10.52-7.78-1.22-1.8-14.01,2.84-22.59-3.14,0,0-1.96,3.73-2.46,6.48Z"/>
      <path class="cls-1" d="m2648.66,610.82c-5.43,12.77-27.01,12.97-27.69,16.05-.69,3.08,7.09,5.49,12.22,4.86.62,2.38-19.06,9.08-19.07,12.07s22.42.52,22.42.52c0,0-3.44,4.62-2.41,6.92s15.65-4.21,15.65-4.21l5.57,12.62s22.08.19,22.18-2.57c.1-2.76-11.6-1.29-17.12-9.46,2.74-1.03,6.85-1.57,7.24-3.96.39-2.4-4.55-1.72-8.02-3.41,14.22-2.09,19.28-7.9,18-9.76-1.27-1.86-5.1-.58-12.2-1.26,2.42-1.07,7.78-2.84,6.75-5.19-1.03-2.35-10.87-1.8-12.18-9.36,4.8,1.76,12.63-.42,12.59-2.92-.05-2.5-12.57-3.13-17.17-12.72l-5.64,2.83s.79,6.37-1.12,8.96Z"/>
    </g>
    <path class="cls-1" d="m97.13,355.34c-1.61-3.39,30.83-7,32.46-29.77,0,0-19.68,4.15-20.38,0-.7-4.16,27.76-18.17,37.45-45.37-3.46,3.79-27.27,11.61-29.01,8.28-1.74-3.33,15.72-5.56,25.44-34.98-5.42,4.08-19.14,5.66-19.98,1.46-.85-4.21,18.98-13.37,27.41-34.05-4.29,2.94-15.92,2.54-16.29-.59s10.72-6.91,19.45-25.57c-4.26,4.44-25.79,7.34-26.04,2.67s14.38-6.62,25.38-31.62,13.79-72.49,17.48-72.49,2.37,23.58,8.65,38.95c6.27,15.36,16.89,18.98,15.74,21.14-1.15,2.15-7.4,1.42-10.57.2,2.13,23.61,20.7,27.33,20.28,31.33-.42,4-12.83,4.83-19.33,3.17,4.4,9.65,16.75,14.58,16.25,17.92-.5,3.33-8.43,4.13-12.5,3.75,6,28.92,26.62,28.54,27.38,32.54s-12.25,8.12-19.63,5.88c.88,28.5,30.25,32.31,30.69,37.9.44,5.6-13.44,8.1-25.6,7.26,9.77,24.53,39.49,29.75,39.5,34.17.01,4.42-14,9.75-25.83,7.17,6.6,13.11,23.83,15.4,22.67,18.86s-38.35,2.93-69.09,2.09c-30.09-.82-70.34,3.13-71.95-.26Z"/>
    <path class="cls-1" d="m447.09,413.71c-1.61-3.39,30.83-7,32.46-29.77,0,0-19.68,4.15-20.38,0-.7-4.16,27.76-18.17,37.45-45.37-3.46,3.79-27.27,11.61-29.01,8.28-1.74-3.33,15.72-5.56,25.44-34.98-5.42,4.08-19.14,5.66-19.98,1.46-.85-4.21,18.98-13.37,27.41-34.05-4.29,2.94-15.92,2.54-16.29-.59-.37-3.13,10.72-6.91,19.45-25.57-4.26,4.44-25.79,7.34-26.04,2.67s14.37-6.62,25.37-31.62,13.79-72.49,17.48-72.49,2.37,23.58,8.65,38.95c6.27,15.36,16.89,18.98,15.74,21.14-1.15,2.15-7.4,1.42-10.57.2,2.13,23.61,20.7,27.33,20.28,31.33-.42,4-12.83,4.83-19.33,3.17,4.4,9.65,16.75,14.58,16.25,17.92-.5,3.33-8.43,4.13-12.5,3.75,6,28.92,26.62,28.54,27.37,32.54s-12.25,8.12-19.62,5.88c.87,28.5,30.25,32.31,30.69,37.9.44,5.6-13.44,8.1-25.6,7.26,9.77,24.53,39.49,29.75,39.5,34.17.01,4.42-14,9.75-25.83,7.17,6.6,13.11,23.83,15.4,22.67,18.86s-38.35,2.93-69.09,2.09c-30.09-.82-70.34,3.13-71.95-.26Z"/>
    <path class="cls-1" d="m857.03,552.2c-.98-2.06,18.76-4.26,19.75-18.11,0,0-11.97,2.52-12.4,0-.43-2.53,16.89-11.05,22.79-27.6-2.1,2.3-16.59,7.06-17.65,5.04-1.06-2.02,9.56-3.38,15.48-21.28-3.3,2.48-11.64,3.44-12.16.89-.52-2.56,11.55-8.14,16.68-20.72-2.61,1.79-9.69,1.55-9.91-.36-.22-1.91,6.52-4.2,11.83-15.55-2.59,2.7-15.69,4.47-15.84,1.62-.15-2.84,8.75-4.03,15.44-19.24,6.69-15.21,8.39-44.1,10.64-44.1s1.44,14.35,5.26,23.69c3.82,9.35,10.28,11.55,9.58,12.86-.7,1.31-4.5.86-6.43.12,1.29,14.37,12.59,16.63,12.34,19.06-.25,2.43-7.81,2.94-11.76,1.93,2.68,5.87,10.19,8.87,9.89,10.9s-5.13,2.51-7.6,2.28c3.65,17.59,16.2,17.36,16.65,19.8.46,2.43-7.45,4.94-11.94,3.57.53,17.34,18.4,19.65,18.67,23.06.27,3.41-8.18,4.93-15.58,4.42,5.95,14.92,24.02,18.1,24.03,20.79,0,2.69-8.52,5.93-15.72,4.36,4.02,7.98,14.5,9.37,13.79,11.47-.71,2.1-23.33,1.78-42.04,1.27-18.3-.5-42.79,1.9-43.77-.16Z"/>
    <path class="cls-1" d="m1326.48,460.55c-1.61-3.39,30.83-7,32.46-29.77,0,0-19.68,4.15-20.38,0s27.76-18.17,37.45-45.37c-3.46,3.79-27.27,11.61-29.01,8.28-1.74-3.33,15.72-5.56,25.44-34.98-5.42,4.08-19.14,5.66-19.98,1.46-.85-4.21,18.98-13.37,27.41-34.05-4.29,2.94-15.92,2.54-16.29-.59-.37-3.13,10.72-6.91,19.45-25.57-4.26,4.44-25.79,7.34-26.04,2.67s14.38-6.62,25.38-31.62,13.79-72.49,17.48-72.49,2.37,23.58,8.65,38.95c6.27,15.36,16.89,18.98,15.74,21.14-1.15,2.15-7.4,1.42-10.57.2,2.13,23.61,20.7,27.33,20.28,31.33-.42,4-12.83,4.83-19.33,3.17,4.4,9.65,16.75,14.58,16.25,17.92s-8.43,4.13-12.5,3.75c6,28.92,26.62,28.54,27.38,32.54s-12.25,8.12-19.62,5.88c.88,28.5,30.25,32.31,30.69,37.9s-13.44,8.1-25.6,7.26c9.77,24.53,39.49,29.75,39.5,34.17.01,4.42-14,9.75-25.83,7.17,6.6,13.11,23.83,15.4,22.67,18.86s-34.17,25.83-64.91,24.99c-30.09-.82-74.52-19.77-76.13-23.16Z"/>
    <path class="cls-1" d="m2912.22,547.67c-1.61-3.39,30.83-7,32.46-29.77,0,0-19.68,4.15-20.38,0-.7-4.16,27.76-18.17,37.45-45.37-3.46,3.79-27.27,11.61-29.01,8.28s15.72-5.56,25.44-34.98c-5.42,4.08-19.14,5.66-19.98,1.46s18.98-13.37,27.41-34.05c-4.29,2.94-15.92,2.54-16.29-.59-.37-3.13,10.72-6.91,19.45-25.57-4.26,4.44-25.79,7.34-26.04,2.67-.25-4.67,14.38-6.62,25.38-31.62s13.79-72.49,17.48-72.49,2.37,23.58,8.65,38.95c6.27,15.36,16.89,18.98,15.74,21.14s-7.4,1.42-10.57.2c2.13,23.61,20.7,27.33,20.28,31.33s-12.83,4.83-19.33,3.17c4.4,9.65,16.75,14.58,16.25,17.92-.5,3.33-8.43,4.13-12.5,3.75,6,28.92,26.62,28.54,27.38,32.54s-12.25,8.12-19.62,5.88c.88,28.5,30.25,32.31,30.69,37.9.44,5.6-13.44,8.1-25.6,7.26,9.77,24.53,39.49,29.75,39.5,34.17.01,4.42-14,9.75-25.83,7.17,6.6,13.11,23.83,15.4,22.67,18.86-1.16,3.46-34.17,25.83-64.91,24.99-30.09-.82-74.52-19.77-76.13-23.16Z"/>
    <path class="cls-1" d="m2405.88,639.9c-1.26-2.64,23.98-5.45,25.25-23.15,0,0-15.31,3.23-15.85,0-.55-3.23,21.59-14.13,29.13-35.29-2.69,2.94-21.21,9.03-22.57,6.44-1.35-2.59,12.22-4.33,19.79-27.21-4.21,3.18-14.88,4.4-15.54,1.13-.66-3.27,14.77-10.4,21.32-26.49-3.34,2.28-12.39,1.98-12.67-.46-.29-2.44,8.34-5.37,15.13-19.89-3.31,3.45-20.06,5.71-20.26,2.07s11.18-5.15,19.74-24.6c8.56-19.45,10.72-56.38,13.6-56.38s1.85,18.34,6.73,30.29c4.88,11.95,13.14,14.76,12.24,16.44-.89,1.68-5.76,1.11-8.22.15,1.66,18.37,16.1,21.26,15.78,24.37-.32,3.11-9.98,3.76-15.04,2.46,3.42,7.51,13.03,11.34,12.64,13.94s-6.55,3.21-9.72,2.92c4.67,22.49,20.71,22.2,21.29,25.31.58,3.11-9.53,6.32-15.26,4.57.68,22.17,23.53,25.13,23.87,29.48s-10.45,6.3-19.92,5.65c7.6,19.08,30.71,23.14,30.72,26.58.01,3.44-10.89,7.58-20.09,5.57,5.14,10.2,18.53,11.98,17.63,14.67s-26.58,20.09-50.49,19.44c-23.4-.64-57.96-15.38-59.22-18.02Z"/>
    <path class="cls-1" d="m3353.43,364.32c-1.61-3.39,30.83-7,32.46-29.77,0,0-19.68,4.15-20.38,0s27.76-18.17,37.45-45.37c-3.46,3.79-27.27,11.61-29.01,8.28s15.72-5.56,25.44-34.98c-5.42,4.08-19.14,5.66-19.98,1.46-.85-4.21,18.98-13.37,27.41-34.05-4.29,2.94-15.92,2.54-16.29-.59-.37-3.13,10.72-6.91,19.45-25.57-4.26,4.44-25.79,7.34-26.04,2.67s14.38-6.62,25.38-31.62,13.79-72.49,17.48-72.49,2.37,23.58,8.65,38.95c6.27,15.36,16.89,18.98,15.74,21.14-1.15,2.15-7.4,1.42-10.57.2,2.13,23.61,20.7,27.33,20.28,31.33s-12.83,4.83-19.33,3.17c4.4,9.65,16.75,14.58,16.25,17.92s-8.43,4.13-12.5,3.75c6,28.92,26.62,28.54,27.38,32.54s-12.25,8.12-19.62,5.88c.88,28.5,30.25,32.31,30.69,37.9.44,5.6-13.44,8.1-25.6,7.26,9.77,24.53,39.49,29.75,39.5,34.17s-14,9.75-25.83,7.17c6.6,13.11,23.83,15.4,22.67,18.86s-34.17,25.83-64.91,24.99c-30.09-.82-74.52-19.77-76.13-23.16Z"/>
    <path class="cls-1" d="m749.61,568.43c-41.27-2.96-72.84-4.08-72.51-8.05.33-3.97,26.3-.61,35.63-15.67-7.14,1.14-25.05,4.51-26.31,1.32-1.26-3.18,9.77-4.15,20.14-13.82,10.37-9.67,13.44-17.53,13.44-17.53,0,0-23.48,10.53-25.48,7.94s18.28-13.33,25.16-21.45c-4.13,1.86-13.95,2.59-14.01-.72-.06-3.31,12.41-6.55,14.61-13.57-6.29,1.93-21.6.74-21.09-4.08.51-4.82,23.15.32,37.68-34.85-8.41,6.13-29.37,10.56-31.35,6.91-1.98-3.65,25.75-10.46,27.64-36.35-11.01,4.36-24.67,1.05-24.87-1.49-.2-2.54,16.38-2.48,21.08-12.89-5.14,3.3-12.7,3.35-13.56,1.18-.87-2.17,7.81-4.88,15.39-14.91,7.58-10.02,14.06-34.24,14.06-34.24,0,0-17.23,15.31-19.02,12.41-1.79-2.9,10.79-13.43,17.73-29.54s10.25-26.11,13.03-25.87c2.78.23,1.97,23.01,7.77,34.63,5.8,11.62,16.43,17.88,15.78,19.92-.65,2.04-7.8.36-11.46-2.41,2.28,8.98,11.11,12.22,10.73,15.04-.38,2.82-10.78,1.66-10.78,1.66,0,0-1.36,7.8,5.63,14.41,6.99,6.61,13.33,7.39,13.34,9.63.01,2.24-5.74,2.6-10.29,2.35,4,15.98,16.19,16.64,16.56,19.52s-8.72,4.47-14.73,2.3c5.82,15.28,24.19,11.35,25.29,15.38,1.1,4.02-14.61,6.47-25.36,3.6,3.77,6.34,12.55,6.94,12.87,9.06.32,2.12-6.29,3.14-11.9,1.98,5.55,15.95,28.95,17.27,29.6,20.46s-14.1,3.26-17.33,2.4c2.27,12.37,17.9,18.67,16.84,21.41s-12.39,1.9-20.37-2.11c3.03,12.33,21.83,20.08,20.49,21.86-1.34,1.79-8.8.9-12.12.1,3.88,18.39,25.7,24.91,22.61,27.4-3.09,2.49-13.93-.58-19.12-2.16-3.64,14.39,20.86,20.86,18.49,24.79-2.36,3.93-28.64-2.97-69.91-5.93Z"/>
    <path class="cls-1" d="m27.36,170.05c6.59,3.91,23.28,4.01,23.71.1s-12.31-1.24-19.15-14.68c2.63.32,14.31,1.76,15.85-2.94s-30.15-5.15-29.27-27.59c6.93,3.91,23.19,3.78,24.07,0s-19.23-7.14-22.6-25.11c9.98,1.24,17.27-.5,16.58-3.9-.68-3.39-20.97-6.8-27.57-21.82,3.25,1.27,9.82.67,10.23-1.55.42-2.22-8.86-4.5-13.26-14.15,1.39,0,8.22,1.52,9.04-.39.83-1.91-3.91-4.49-5.78-7.11,2.44.11,11.93.39,12.66-2.61.73-3-15.12-4.63-17.25-28.25,3.17,1.23,9.42,1.96,10.57-.2C16.31,17.76,6.32,14.28,0,0v222.34c28.08.64,57.46.71,58.49-2.35,1.16-3.46-12.81-4.63-19.41-17.74,4.4.98,23.12,3.91,23.87.39.76-3.52-25.82-8.05-35.6-32.58Z"/>
    <path class="cls-1" d="m2249.33,766.6c-1.34-2.83,24.93-7.66,26.28-26.62,0,0-14.94,6.44-16.63,3.69-1.68-2.74,23.53-17.01,31.6-39.66-2.88,3.15-22.72,9.67-24.16,6.9s12.31-6.52,20.41-31.02c-4.3,3.23-13.91,5.11-15.86,3.1s9.15-7.23,11.12-10.54c-2.25,1.01-6.97.92-6.78-1.85.18-2.77,13.54-6.19,18.49-15.97-3.58,2.45-13.26,2.12-13.57-.49-.31-2.61,8.89-3.42,16.17-18.96-3.55,3.69-21.19,7.12-22.39,5.11-1.2-2.01,14.11-6.48,17.09-19.88-1.7,1.75-9.58,3.36-9.95.92-.37-2.43,7.71-2.4,16.68-21.3,8.85-18.65,9.53-51.67,12.6-51.67s1.98,19.64,7.2,32.44c5.23,12.8,14.07,15.81,13.11,17.6s-6.16,1.18-8.8.16c1.77,19.67,14.98,21.03,14.36,23.53-.61,2.5-8.51,2.27-10.54,2.17,1.56,2.18,5.5,4.34,4.81,5.92-.69,1.59-6.37.32-7.53.32,3.67,8.04,11.39,9.94,11.04,11.79-.35,1.85-5.82,2.35-8.52,1.29,5.5,12.51,22.4,15.35,22.97,18.18.57,2.83-5.5,4.28-13.81,3.25,2.81,14.97,19.56,17.77,18.83,20.92-.73,3.15-14.27,3.26-20.05,0-.73,18.69,25.66,19.07,24.38,22.98s-11.01,2.72-13.2,2.45c5.7,11.19,16.31,8.96,15.95,12.23-.35,3.26-14.26,3.18-19.75-.08,8.14,20.43,30.28,24.2,29.65,27.14-.63,2.94-16.22.49-19.88-.32,5.5,10.92,17.13,11.9,16.17,14.78s-31.94,2.44-57.55,1.74c-25.06-.68-58.59,2.61-59.93-.22Z"/>
    <path class="cls-1" d="m1860.68,682.01c-1.61-3.39,29.93-9.2,31.56-31.96,0,0-17.94,7.73-19.96,4.44-2.02-3.29,28.25-20.42,37.94-47.62-3.46,3.79-27.27,11.61-29.01,8.28s14.77-7.83,24.5-37.25c-5.17,3.88-16.69,6.13-19.04,3.72s10.99-8.68,13.36-12.66c-2.7,1.21-8.37,1.11-8.15-2.22.22-3.33,16.25-7.44,22.2-19.18-4.29,2.94-15.92,2.54-16.29-.59-.37-3.13,10.68-4.11,19.41-22.77-4.26,4.44-25.44,8.54-26.88,6.13s16.95-7.78,20.52-23.87c-2.04,2.1-11.5,4.03-11.94,1.11-.44-2.92,9.26-2.88,20.03-25.57,10.62-22.39,11.44-62.04,15.13-62.04s2.37,23.58,8.65,38.95c6.27,15.36,16.89,18.98,15.74,21.14-1.15,2.15-7.4,1.42-10.57.2,2.13,23.61,17.98,25.25,17.25,28.25-.73,3-10.22,2.72-12.66,2.61,1.87,2.62,6.6,5.2,5.78,7.11-.83,1.91-7.65.39-9.04.39,4.4,9.65,13.67,11.93,13.26,14.15-.42,2.22-6.98,2.82-10.23,1.55,6.6,15.02,26.89,18.43,27.57,21.82s-6.6,5.14-16.58,3.9c3.38,17.97,23.48,21.33,22.6,25.11s-17.14,3.91-24.07,0c-.88,22.44,30.81,22.9,29.27,27.59-1.54,4.7-13.22,3.26-15.85,2.94,6.84,13.44,19.58,10.76,19.15,14.68-.43,3.92-17.12,3.82-23.71-.1,9.77,24.53,36.35,29.06,35.6,32.58-.76,3.52-19.47.59-23.87-.39,6.6,13.11,20.57,14.28,19.41,17.74-1.16,3.46-38.35,2.93-69.09,2.09-30.09-.82-70.34,3.13-71.95-.26Z"/>
    <path class="cls-1" d="m2760.32,722.03c-32.18.39-56.73,1.58-56.73-1.52,0-3.1,20.35-2.19,26.6-14.46-5.46,1.35-19.12,5.12-20.3,2.74-1.18-2.38,7.3-3.85,14.71-12.03,7.41-8.17,9.28-14.46,9.28-14.46,0,0-17.52,9.69-19.24,7.81s13.3-11.52,18.11-18.27c-3.08,1.71-10.65,2.92-10.91.36-.26-2.56,9.19-5.89,10.44-11.47-4.75,1.9-16.7,1.98-16.61-1.79.09-3.77,17.96-1.26,26.94-29.47-6.12,5.3-22.08,10.09-23.85,7.39s19.28-9.78,19.06-29.98c-8.25,4.09-19.05,2.42-19.38.46s12.53-2.98,15.5-11.37c-3.77,2.89-9.62,3.42-10.44,1.8-.81-1.62,5.74-4.29,10.96-12.56s8.67-27.45,8.67-27.45c0,0-12.36,12.99-13.93,10.86-1.58-2.13,7.49-11.11,11.82-24.05,4.33-12.94,6.25-20.9,8.42-20.9s3.02,17.71,8.27,26.34c5.25,8.63,13.9,12.79,13.53,14.41-.37,1.62-6.03.79-9.04-1.12,2.35,6.81,9.4,8.75,9.29,10.96-.11,2.21-8.25,1.99-8.25,1.99,0,0-.55,6.14,5.3,10.81,5.85,4.67,10.81,4.86,10.97,6.6s-4.28,2.39-7.82,2.49c4.14,12.13,13.63,11.84,14.1,14.05.47,2.21-6.46,4.03-11.27,2.74,5.51,11.47,19.49,7.23,20.6,10.27s-10.9,5.96-19.42,4.44c3.34,4.67,10.18,4.57,10.56,6.19.38,1.62-4.67,2.84-9.1,2.31,5.34,12,23.57,11.5,24.28,13.93.71,2.43-10.72,3.45-13.28,2.99,2.56,9.44,15.09,13.31,14.45,15.5-.64,2.19-9.48,2.28-15.93-.31,3.15,9.36,18.23,14.14,17.31,15.61-.92,1.47-6.76,1.27-9.39.86,4.2,14.01,21.54,17.63,19.31,19.76-2.23,2.13-10.84.46-14.96-.43-1.88,11.39,17.52,14.81,15.95,18.01-1.58,3.2-22.39-.44-54.58-.05Z"/>
    <path class="cls-1" d="m1629.16,670.55c-41.37.5-72.92,2.03-72.93-1.96,0-3.98,26.16-2.81,34.19-18.59-7.02,1.73-24.58,6.58-26.1,3.52-1.52-3.07,9.39-4.95,18.91-15.46,9.53-10.51,11.92-18.59,11.92-18.59,0,0-22.52,12.46-24.73,10.05-2.21-2.41,17.1-14.81,23.28-23.48-3.96,2.2-13.69,3.75-14.02.46-.34-3.29,11.82-7.57,13.42-14.74-6.11,2.45-21.47,2.54-21.35-2.3.11-4.84,23.09-1.61,34.63-37.88-7.87,6.81-28.38,12.98-30.66,9.5-2.28-3.47,24.78-12.58,24.5-38.54-10.61,5.26-24.49,3.11-24.91.59s16.11-3.84,19.92-14.61c-4.85,3.71-12.37,4.4-13.42,2.31-1.05-2.09,7.37-5.52,14.09-16.14,6.72-10.62,11.14-35.29,11.14-35.29,0,0-15.89,16.7-17.91,13.96-2.03-2.74,9.62-14.29,15.2-30.92,5.57-16.63,8.04-26.87,10.82-26.87s3.88,22.77,10.64,33.86,17.87,16.44,17.39,18.53c-.48,2.08-7.75,1.01-11.62-1.44,3.02,8.75,12.09,11.25,11.95,14.09-.14,2.84-10.6,2.55-10.6,2.55,0,0-.7,7.89,6.81,13.89,7.52,6,13.9,6.25,14.1,8.48s-5.5,3.07-10.06,3.2c5.32,15.59,17.53,15.23,18.13,18.06.61,2.84-8.31,5.19-14.49,3.53,7.08,14.74,25.06,9.29,26.49,13.21s-14.02,7.66-24.97,5.71c4.29,6,13.09,5.87,13.58,7.95s-6,3.65-11.69,2.97c6.86,15.43,30.3,14.78,31.21,17.91s-13.78,4.43-17.07,3.84c3.29,12.13,19.4,17.11,18.57,19.93s-12.19,2.93-20.47-.4c4.05,12.04,23.43,18.18,22.25,20.07-1.18,1.89-8.7,1.63-12.07,1.11,5.4,18,27.69,22.67,24.82,25.41-2.87,2.74-13.93.59-19.23-.55-2.42,14.64,22.53,19.04,20.5,23.15-2.03,4.11-28.79-.57-70.16-.06Z"/>
    <g>
      <path class="cls-1" d="m1783.68,633.6s4.35-39.27,6.07-69.44c1.71-30.17.46-76.13,1.54-102.55.44-10.83,1.48-29.07,1.14-47.23-.35-18.91-.82-38.87-.75-42.2.07-3.33,3.62-8.66,5.42-5.62,1.8,3.03-.05,72.7,1.12,95.05,1.17,22.34.59,82.22,0,103.95-.59,21.72-2.35,68.04-2.35,68.04h-12.18Z"/>
      <path class="cls-1" d="m1759.91,404.87c-1.27,1.24,6.6,9.61,13.01,11.61-3.82,2.3-10.69,2.34-10.68,4.4s11.79,5,22.71,2.78c-3.98,4.82-12.85,5.32-12.88,7.83-.03,2.51,16.96,3.42,23.58-4.11,0,0-1.4,19.86,1.27,23.71,2.67,3.85,12.08,7.13,13.7,5.42,1.63-1.72-5.03-4.14-6.66-9.88,17.22.36,23.97-8.93,22.67-10.96-1.3-2.03-7.66,3.23-15.82,1.14,3.59-.85,7.83-4.34,7.11-6.78-.72-2.45-10.7.91-13.8-8.51,8.19-1.08,10.14-5.38,9.23-6.56-.91-1.17-9.3,2.97-16.4-3.65-.6-.52-1.14-6.87-1.6-7.57,0,0-6.78,4.89-16.83,4.96-10.05.07-17.35-5.05-18.62-3.81Z"/>
      <path class="cls-1" d="m1794.38,471.43c-10.45,13.24-24.88,8.23-25.28,11.38-.4,3.15,10.29,6.09,14.96,5.03-5.66,10.14-22.69,8.09-22.98,10.53-.29,2.45,6.7,3.58,8.07,3.52-1.37,3.13-14.53,3.46-14.04,6.31.49,2.85,16.45,3.51,23.71-2.4-2.15,9.85-15.18,11-15.17,14.09,0,3.1,15.01.88,18.92-3.52-1.62,13.89-17.95,18.63-17.35,20.91.6,2.28,14.31-.56,19-4.86-.18,2.59-2.94,8.07-1.57,9.15,1.37,1.08,10.81-12.13,13.92-18.28,0,0-2.72-21.72.88-25.73,7.85,7.89,19.62,5.63,19.62,3.35,0-2.28-11.64-2.09-12.73-11.62,3.05,1.97,8.59,2.4,9.67.8,1.08-1.6-6.59-3.49-7.67-8.81,6.05-1.21,11.26-6.2,9.72-8.11s-9.9,4.96-21.69-1.74Z"/>
      <path class="cls-1" d="m1792.88,546.75c-11.2,12.93-21.58,7.72-22.51,10.37-.93,2.65,9.03,5.99,14.97,4.86-4.94,5.87-20.03.85-21.02,3.36-.99,2.51,10.6,6.18,10.6,6.18,0,0-5.48,1.1-4.94,2.82.54,1.73,16.08.36,24.07-9.66,4.83,4.96,13.11,5.49,14.06,3.7.95-1.78-4.76-3.48-6.33-6.67,13.31.19,17.29-7.11,15.79-8.39-1.5-1.27-4.89,3.24-14.22,1.05,2.61-1.15,5.87-4.01,4.99-5.38-.88-1.37-6.46,3.17-12.62,1.86-1.46-.41-.34-3.95-2.84-4.11Z"/>
      <path class="cls-1" d="m1791.12,571.21s-2.74,5.59-16.1,7.94c-13.36,2.35-22.85-1.74-23.43.57s5.14,5.59,10.23,6.03c-2.54.59-7.29.78-7.05,2.74s13.89,3.52,25.39-1.24c0,0-.44,5.2-7,9.55s-13.01,4.43-13.16,6.74c-.15,2.31,13.99,2.15,21.33-2.74,0,0-4.65,6.4-2.84,7.93,1.81,1.53,14.29-13.45,14.29-13.45,0,0,.77,5.18,2.38,6.09,8.02,3.14,18.95.11,18.36-2.28s-7.53-2.78-12.67-10.31c4.31,1.86,12.62,3.84,13.7,2.38,1.08-1.46-6.8-4.05-10.91-6.85,3.75.06,8.86-2.94,7.93-5.37s-8.07,2.15-14.43-4.95c-2.2-1.99-6.02-2.79-6.02-2.79Z"/>
    </g>
    <path class="cls-1" d="m2066.01,718.63c3.08-4.57-14.68-10.96-14.16-22.57,11.08,7.44,28.12,10.18,28.69,5.61.57-4.57-31.59-13.4-32.11-46.99,3.85,3.03,16.29,4.2,16.84.09.55-4.11-26.09-19.67-24.8-46.51,4,4.93,15.19,13.21,18.93,10.37,3.74-2.84-7.04-14.87-7.04-14.87,0,0,21.5,3.85,22.42-2.02.92-5.87-26.97-8.74-34.46-39.93,3.96,3.26,20.4,10.11,22.46,6,2.05-4.11-8.73-7.66-16.44-23.32-7.71-15.66-8.92-30.63-8.92-30.63,0,0,17.28,21.59,20.51,18.85s-10.42-19.05-15.56-38.62c-5.14-19.57-5.27-49.66-8.66-50.1-3.39-.44-2.57,10.91-6.64,17.17-4.07,6.26-11.89,5.09-12.6,7.53-.72,2.45,5.06,4.51,9.69,4.21-2.2,27.98-31.9,30.32-32.34,34.56-.44,4.24,13.14,5.02,13.14,5.02,0,0-12.99,6.91-11.74,9.65,1.25,2.74,14.71-.16,14.71-.16,0,0-2.75,10.9-10.13,18.3-9.18,9.21-19.92,12.33-19.04,15.85.88,3.52,16.02,4.31,24.66-1.32-8.31,17.86-21.43,19.65-20.51,22.82s10.38,2.19,12.26,1.89c-7.3,8.81-18.05,7.76-18.31,10.83-.26,3.07,12.95,5.81,24.39.32-2.9,17.68-28.44,23.36-27.69,27.24s15.06,3,20.57.21c-5.89,23.92-39.35,32.73-37.88,37.36,1.47,4.63,24.36,1.76,28.99-.46-10.71,19.9-39.55,21.41-38.09,25.64,1.47,4.23,18.27,3.13,23.19,1.7-6.24,7.31-16.27,9.26-15.44,12.03.83,2.78,11.92,1.54,15.36-.16-2.79,16.24-32.51,19.44-32.51,24.4s37.41-.42,70.74-1.17c30.69-.69,54.45,5.74,57.53,1.17Z"/>
    <path class="cls-1" d="m1639.75,547c-2.63-4.84,15.66-9.5,16.27-21.1-11.74,6.34-28.97,7.42-29.1,2.82-.13-4.6,32.73-10.3,36.48-43.69-4.13,2.64-16.62,2.61-16.77-1.53-.15-4.14,27.86-17.07,29.16-43.91-4.45,4.52-16.39,11.69-19.84,8.5-3.45-3.18,8.44-14.13,8.44-14.13,0,0-21.78,1.77-22.12-4.17-.35-5.93,27.69-6.11,38.13-36.43-4.26,2.87-21.28,8.1-22.93,3.81-1.65-4.29,9.43-6.79,18.6-21.63,9.18-14.84,11.82-29.63,11.82-29.63,0,0-19.28,19.83-22.23,16.79-2.95-3.04,12.2-17.96,19.2-36.94,6.99-18.99,10.02-48.92,13.44-49.03,3.42-.11,1.51,11.11,4.96,17.73s11.34,6.21,11.82,8.71-5.47,4-10.05,3.26c-.5,28.07,28.84,33.24,28.87,37.51.03,4.26-13.56,3.74-13.56,3.74,0,0,12.26,8.13,10.76,10.74s-14.63-1.58-14.63-1.58c0,0,1.69,11.12,8.32,19.19,8.25,10.05,18.65,14.19,17.43,17.61-1.22,3.42-16.36,2.75-24.42-3.69,6.56,18.57,19.44,21.62,18.22,24.68-1.22,3.06-10.55,1.18-12.38.7,6.42,9.47,17.22,9.46,17.18,12.54-.04,3.08-13.45,4.53-24.3-2.02,1.19,17.88,26.06,25.98,24.94,29.77-1.12,3.79-15.28,1.54-20.49-1.77,3.56,24.38,36.02,36.36,34.12,40.83-1.91,4.47-24.42-.59-28.81-3.24,2.78,29.34,27.34,37.46,26.41,42.1-.93,4.64-17.24.44-20.51-1.58,1.21,16.44,35.73,22.42,35.25,27.35-.48,4.93-37.19-4.02-70.3-7.97-30.49-3.64-54.75.48-57.38-4.36Z"/>
    <path class="cls-1" d="m2067.44,684.62c-3.08-4.57,14.68-10.96,14.16-22.57-11.08,7.44-28.12,10.18-28.69,5.61-.57-4.57,31.59-13.4,32.11-46.99-3.85,3.03-16.29,4.2-16.84.09-.55-4.11,26.09-19.67,24.8-46.51-4,4.93-15.19,13.21-18.93,10.37-3.74-2.84,7.04-14.87,7.04-14.87,0,0-21.5,3.85-22.42-2.02-.92-5.87,26.97-8.74,34.46-39.93-3.96,3.26-20.4,10.11-22.46,6-2.05-4.11,8.73-7.66,16.44-23.32,7.71-15.66,8.92-30.63,8.92-30.63,0,0-17.28,21.59-20.51,18.85-3.23-2.74,10.42-19.05,15.56-38.62,5.14-19.57,5.27-49.66,8.66-50.1,3.39-.44,2.57,10.91,6.64,17.17,4.07,6.26,11.89,5.09,12.6,7.53.72,2.45-5.06,4.51-9.69,4.21,2.2,27.98,31.9,30.32,32.34,34.56.44,4.24-13.14,5.02-13.14,5.02,0,0,12.99,6.91,11.74,9.65-1.25,2.74-14.71-.16-14.71-.16,0,0,2.75,10.9,10.13,18.3,9.18,9.21,19.92,12.33,19.04,15.85-.88,3.52-16.02,4.31-24.66-1.32,8.31,17.86,21.43,19.65,20.51,22.82s-10.38,2.19-12.26,1.89c7.3,8.81,18.05,7.76,18.31,10.83.26,3.07-12.95,5.81-24.39.32,2.9,17.68,28.44,23.36,27.69,27.24-.75,3.88-15.06,3-20.57.21,5.89,23.92,39.35,32.73,37.88,37.36-1.47,4.63-24.36,1.76-28.99-.46,10.71,19.9,39.55,21.41,38.09,25.64-1.47,4.23-18.27,3.13-23.19,1.7,6.24,7.31,16.27,9.26,15.44,12.03-.83,2.78-11.92,1.54-15.36-.16,2.79,16.24,32.51,19.44,32.51,24.4s-37.41-.42-70.74-1.17c-30.69-.69-54.45,5.74-57.53,1.17Z"/>
    <path class="cls-1" d="m1505.51,664.47c-1.61-3.39,29.93-9.2,31.56-31.96,0,0-17.94,7.73-19.96,4.44-2.02-3.29,28.25-20.42,37.94-47.62-3.46,3.79-27.27,11.61-29.01,8.28-1.74-3.33,14.77-7.83,24.5-37.25-5.17,3.88-16.69,6.13-19.04,3.72s10.99-8.68,13.36-12.66c-2.7,1.21-8.37,1.11-8.15-2.22.22-3.33,16.25-7.44,22.2-19.18-4.29,2.94-15.92,2.54-16.29-.59-.37-3.13,10.68-4.11,19.41-22.77-4.26,4.44-25.44,8.54-26.88,6.13-1.44-2.41,16.95-7.77,20.52-23.87-2.04,2.1-11.5,4.03-11.94,1.11-.44-2.92,9.26-2.88,20.03-25.57,10.62-22.39,11.44-62.04,15.13-62.04s2.37,23.58,8.65,38.95,16.89,18.98,15.74,21.14-7.4,1.42-10.57.2c2.13,23.61,17.98,25.25,17.25,28.25-.73,3-10.22,2.72-12.66,2.61,1.87,2.62,6.6,5.2,5.78,7.11-.83,1.91-7.65.39-9.04.39,4.4,9.65,13.67,11.93,13.26,14.15-.42,2.22-6.98,2.82-10.23,1.55,6.6,15.02,26.89,18.43,27.57,21.82s-6.6,5.14-16.58,3.9c3.38,17.97,23.48,21.33,22.6,25.11-.88,3.78-17.14,3.91-24.07,0-.88,22.44,30.81,22.9,29.27,27.59s-13.22,3.26-15.85,2.94c6.84,13.44,19.58,10.76,19.15,14.68s-17.12,3.82-23.71-.1c9.77,24.53,36.35,29.06,35.6,32.58-.76,3.52-19.47.59-23.87-.39,6.6,13.11,20.57,14.28,19.41,17.74-1.16,3.46-38.35,2.93-69.09,2.09-30.09-.82-70.34,3.13-71.95-.26Z"/>
    <path class="cls-1" d="m2382.84,695.57c-41.37.5-72.92,2.03-72.93-1.96,0-3.98,26.16-2.81,34.19-18.59-7.02,1.73-24.58,6.58-26.1,3.52-.77-1.55,8.54-4.03,19.18-12.97,10.34-8.69,14.26-19.81,14.26-19.81,0,0-14.8,8.4-17.01,5.99-2.21-2.41,17.1-14.81,23.28-23.48-3.96,2.2-24.02,6.54-24.35,3.25-.34-3.29,11.82-7.57,13.42-14.74-6.11,2.45-21.47,2.54-21.35-2.3.11-4.84,23.09-1.61,34.63-37.88-7.87,6.81-28.38,12.98-30.66,9.5-2.28-3.47,24.78-12.58,24.5-38.54-10.61,5.26-24.49,3.11-24.91.59-.42-2.52,16.11-3.84,19.92-14.61-4.85,3.71-12.37,4.4-13.42,2.31-1.05-2.09,7.37-5.52,14.09-16.14,6.72-10.62,11.14-35.29,11.14-35.29,0,0-15.89,16.7-17.91,13.96-2.03-2.74,9.62-14.29,15.2-30.92,5.57-16.63,8.04-26.87,10.82-26.87s3.88,22.77,10.64,33.86c6.75,11.09,17.87,16.44,17.39,18.53-.48,2.08-7.75,1.01-11.62-1.44,3.02,8.75,12.09,11.25,11.95,14.09-.14,2.84-10.6,2.55-10.6,2.55,0,0-.7,7.89,6.81,13.89,7.52,6,13.9,6.25,14.1,8.48.2,2.23-5.5,3.07-10.06,3.2,5.32,15.59,17.53,15.23,18.13,18.06.61,2.84-8.31,5.19-14.49,3.53,7.08,14.74,25.06,9.29,26.49,13.21s-14.02,7.66-24.97,5.71c4.29,6,13.09,5.87,13.58,7.95s-6,3.65-11.69,2.97c6.86,15.43,30.3,14.78,31.21,17.91.91,3.13-13.78,4.43-17.07,3.84,3.29,12.13,19.4,17.11,18.57,19.93-.82,2.82-12.19,2.93-20.47-.4,4.05,12.04,23.43,18.18,22.25,20.07-1.18,1.89-8.7,1.63-12.07,1.11,5.4,18,27.69,22.67,24.82,25.41s-13.93.59-19.23-.55c-2.42,14.64,22.53,19.04,20.5,23.15-2.03,4.11-28.79-.57-70.16-.06Z"/>
    <path class="cls-1" d="m2643.17,743.84c-1.61-3.39,29.93-9.2,31.56-31.96,0,0-17.94,7.73-19.96,4.44-2.02-3.29,28.25-20.42,37.94-47.62-3.46,3.79-27.27,11.61-29.01,8.28s14.77-7.83,24.5-37.25c-5.17,3.88-16.69,6.13-19.04,3.72s10.99-8.68,13.36-12.66c-2.7,1.21-8.37,1.11-8.15-2.22.22-3.33,16.25-7.44,22.2-19.18-4.29,2.94-15.92,2.54-16.29-.59-.37-3.13,10.68-4.11,19.41-22.77-4.26,4.44-25.44,8.54-26.88,6.13-1.44-2.41,16.95-7.77,20.52-23.87-2.04,2.1-11.5,4.03-11.94,1.11-.44-2.92,9.26-2.88,20.03-25.57,10.62-22.39,11.44-62.04,15.13-62.04s2.37,23.58,8.65,38.95c6.27,15.36,16.89,18.98,15.74,21.14-1.15,2.15-7.4,1.42-10.57.2,2.13,23.61,17.98,25.25,17.25,28.25-.73,3-10.22,2.72-12.66,2.61,1.87,2.62,6.6,5.2,5.78,7.11-.83,1.91-7.65.39-9.04.39,4.4,9.65,13.67,11.93,13.26,14.15-.42,2.22-6.98,2.82-10.23,1.55,6.6,15.02,26.89,18.43,27.57,21.82.68,3.39-6.6,5.14-16.58,3.9,3.38,17.97,23.48,21.33,22.6,25.11-.88,3.78-17.14,3.91-24.07,0-.88,22.44,30.81,22.9,29.27,27.59-1.54,4.7-13.22,3.26-15.85,2.94,6.84,13.44,19.58,10.76,19.15,14.68-.43,3.92-17.12,3.82-23.71-.1,9.77,24.53,36.35,29.06,35.6,32.58-.76,3.52-19.47.59-23.87-.39,6.6,13.11,20.57,14.28,19.41,17.74-1.16,3.46-38.35,2.93-69.09,2.09-15.86-.43-24.88-10.6-38.87-.69-13.99,9.92-32.31,2.03-33.08.43Z"/>
    <path class="cls-1" d="m2817.52,482.23c-6.27-15.36-4.95-38.95-8.65-38.95s-4.5,39.64-15.13,62.04c-10.77,22.69-20.47,22.65-20.03,25.57.44,2.92,9.91.99,11.94-1.11-3.58,16.1-21.97,21.46-20.52,23.87s22.63-1.69,26.88-6.13c-8.73,18.66-19.78,19.64-19.41,22.77.37,3.13,12,3.52,16.29.59-5.94,11.74-21.98,15.85-22.2,19.18-.22,3.33,5.45,3.42,8.15,2.22-2.37,3.98-15.7,10.24-13.36,12.66,2.35,2.41,13.88.16,19.04-3.72-9.72,29.42-26.24,33.92-24.5,37.25,1.74,3.33,25.55-4.5,29.01-8.28-9.69,27.2-39.96,44.33-37.94,47.62,2.02,3.29,19.96-4.44,19.96-4.44-1.63,22.76-33.17,28.57-31.56,31.96,1.61,3.39,41.86-.56,71.95.26,3.47.09,7.03.19,10.61.27v-222.34c-.19-.42-.37-.85-.55-1.29Z"/>
    <path class="cls-1" d="m3048.79,566.34c-2.63-4.84,15.66-9.5,16.27-21.1-11.74,6.34-28.97,7.42-29.1,2.82-.13-4.6,32.73-10.3,36.48-43.69-4.13,2.64-16.62,2.61-16.77-1.53-.15-4.14,27.86-17.07,29.16-43.91-4.45,4.52-16.39,11.69-19.84,8.5s8.44-14.13,8.44-14.13c0,0-21.78,1.77-22.12-4.17-.35-5.93,27.69-6.11,38.13-36.43-4.26,2.87-21.28,8.1-22.93,3.81s9.43-6.79,18.6-21.63c9.17-14.84,11.82-29.63,11.82-29.63,0,0-19.28,19.83-22.23,16.79-2.95-3.04,12.2-17.96,19.2-36.94,6.99-18.99,10.02-48.92,13.44-49.03,3.42-.11,1.51,11.11,4.96,17.73,3.45,6.62,11.34,6.21,11.82,8.71.48,2.5-5.47,4-10.05,3.26-.5,28.07,28.84,33.24,28.87,37.51.03,4.26-13.56,3.74-13.56,3.74,0,0,12.26,8.13,10.76,10.74s-14.63-1.58-14.63-1.58c0,0,1.69,11.12,8.32,19.19,8.25,10.05,18.65,14.19,17.43,17.61-1.22,3.42-16.36,2.75-24.42-3.69,6.56,18.57,19.44,21.62,18.22,24.68-1.22,3.06-10.55,1.18-12.38.7,6.42,9.47,17.22,9.46,17.18,12.54-.04,3.08-13.45,4.53-24.3-2.02,1.19,17.88,26.06,25.98,24.94,29.77-1.12,3.79-15.28,1.54-20.49-1.77,3.56,24.38,36.02,36.36,34.12,40.83-1.91,4.47-24.42-.59-28.81-3.24,2.78,29.34,27.34,37.46,26.41,42.1-.93,4.64-17.24.44-20.51-1.58,1.21,16.44,35.73,22.42,35.25,27.35-.48,4.93-37.19-4.02-70.3-7.97-30.49-3.64-54.75.48-57.38-4.36Z"/>
    <path class="cls-1" d="m3476.47,394.62c-3.08-4.57,14.68-10.96,14.16-22.57-11.08,7.44-28.12,10.18-28.69,5.61-.57-4.57,31.59-13.4,32.11-46.99-3.85,3.03-16.29,4.2-16.84.09s26.09-19.67,24.8-46.51c-4,4.93-15.19,13.21-18.93,10.37-3.74-2.84,7.04-14.87,7.04-14.87,0,0-21.5,3.85-22.42-2.02-.92-5.87,26.97-8.74,34.46-39.93-3.96,3.26-20.4,10.11-22.46,6-2.05-4.11,8.73-7.66,16.44-23.32,7.71-15.66,8.92-30.63,8.92-30.63,0,0-17.28,21.59-20.51,18.85-3.23-2.74,10.42-19.05,15.56-38.62s5.27-49.66,8.66-50.1,2.57,10.91,6.64,17.17c4.07,6.26,11.89,5.09,12.6,7.53.72,2.45-5.06,4.51-9.69,4.21,2.2,27.99,31.9,30.32,32.34,34.56.44,4.24-13.14,5.02-13.14,5.02,0,0,12.99,6.91,11.74,9.65s-14.71-.16-14.71-.16c0,0,2.75,10.9,10.13,18.3,9.18,9.21,19.92,12.33,19.04,15.85-.88,3.52-16.02,4.31-24.66-1.32,8.31,17.86,21.43,19.65,20.51,22.82s-10.38,2.19-12.26,1.89c7.3,8.81,18.05,7.76,18.31,10.83.26,3.07-12.95,5.81-24.39.32,2.9,17.68,28.44,23.36,27.69,27.24-.75,3.88-15.06,3-20.57.21,5.89,23.92,39.35,32.73,37.88,37.36-1.47,4.63-24.36,1.76-28.99-.46,10.71,19.9,39.55,21.41,38.09,25.64s-18.27,3.13-23.19,1.7c6.24,7.31,16.27,9.26,15.44,12.03-.83,2.78-11.92,1.54-15.36-.16,2.79,16.24,23.36,18.03,23.36,22.99s-28.26.99-61.6.24c-30.69-.69-54.45,5.74-57.53,1.17Z"/>
    <path class="cls-1" d="m2845.42,653.56c6.59,3.91,23.28,4.01,23.71.1s-12.31-1.24-19.15-14.68c2.63.32,14.31,1.76,15.85-2.94s-30.15-5.15-29.27-27.59c6.93,3.91,23.19,3.78,24.07,0s-19.23-7.14-22.6-25.11c9.98,1.24,17.27-.5,16.59-3.9-.68-3.39-20.97-6.8-27.57-21.82,3.25,1.27,9.82.67,10.23-1.55.42-2.22-8.86-4.5-13.26-14.15,1.39,0,8.22,1.52,9.04-.39.83-1.91-3.91-4.49-5.78-7.11,2.44.11,11.93.39,12.66-2.61s-15.12-4.63-17.25-28.25c3.17,1.23,9.42,1.96,10.57-.2,1.12-2.09-8.87-5.57-15.19-19.85v222.34c28.08.64,57.46.71,58.49-2.35,1.16-3.46-12.81-4.63-19.41-17.74,4.4.98,23.12,3.91,23.87.39.76-3.52-25.82-8.05-35.6-32.58Z"/>
    <path class="cls-1" d="m.61,209.24l102.18,94.18,212.99,40.28,224.3,1.67,165.8,141.79,147.23,32.05,141,13.6s14.16-1.15,34.5-1.1c14.06.03,32.74,3.57,44.93-3.55,9.7-5.67,28.52,5.59,36.76-.84,8.07-6.31-4.33-13.98-1.44-22.86,3.22-9.91,21.25-20.73,21.25-20.73,0,0,12.5,7.99,53,0s39.51-19.01,63-21.75c23.49-2.74,20.42,18.7,52,13.76s132.11-18.24,132.11-18.24l92.39,96.8,66.09,25.29,102.5-55.2s98.84,18.25,101.68,22.36c2.84,4.11,61.81-27.87,61.81-27.87l155.85,89.78,144.59,14.11,129.41,56.16,104.07-69.67,91.97-26.69,160.2,12.49,94.67,32.47,179.03-67.39,172.46-47.95s47.6-89.24,95.17-83.96c23.5,2.61,50.63-7.67,54.25-29.79s-8.33-22.64,3.59-33.58c11.92-10.94,36.35-27.8,44.67-37.67,11.31-13.42,6.18-31.12,6.18-31.12l169.74,63.63,140.08,14.49v1078H.61V209.24Z"/>
  </g>
</svg>