<?xml version="1.0" encoding="UTF-8"?>
<svg id="Layer_2" data-name="Layer 2" xmlns="http://www.w3.org/2000/svg" viewBox="0 0 3600 1661.02">
  <defs>
    <style>
      .cls-1 {
        fill: #44b7ae;
        stroke-width: 0px;
      }
    </style>
  </defs>
  <g id="_4" data-name="4">
    <path class="cls-1" d="m0,50.1c13.67,0,26.33,22,45,26.67,18.67,4.67,28.67,12.67,46.67,5.33,18-7.33,14.67-22,44-18.67,29.33,3.33,42-6,64,0,22,6,22.89-.67,31.44,8.67,8.56,9.33,15.89,13.33,27.22,16.67,11.33,3.33,40.03-24.67,44.35-28,4.32-3.33,21.65-6.67,34.98,2.67,13.33,9.33,36.38,22.67,36.38,22.67,0,0,141.95-48.33,157.95-36,16,12.33,35.58,18.33,47.79-7.67,12.21-26,2.22-31,19.71-32,17.49-1,60.32-4,71.41,0,11.09,4,28.09-20,51.09-6s43,25,52,33,48.86-.39,66.93,12.3c18.07,12.7,60.07,60.7,86.07,52.7s54-11,73,0,27.49,9,34.74,23c7.26,14,3.26,25,22.26,28s33.89-6,49.44,4c15.56,10,107.09,20,120.82,30s58.73-10,59.73-17,27.62,10,38.81,11c11.19,1,49.19-11,49.19-11,0,0,124-59,140-35s24,8,52,14,44.46-24,60.23-20,21.77-18.23,45.77-20.11c24-1.89,109.36-53.89,119.68-51.89,10.32,2,46.32,16,58.32,14s18.11-30,62.06-24c43.94,6,59.15,16,92.54,20,33.4,4,53.93-10.75,76.07,29.25,22.14,40,13.33,18.75,55.33,32.75s44-12,68,12,188,47.49,194,48.75,13.55-25.25,44.78,0c31.22,25.25,85.22-6.75,99.22-10.75s71.83-48,97.91-50c26.09-2,73.77,7.77,93.93-20.11,20.16-27.89,77.05,6.11,93.6,10.11,16.55,4,43.66-20,68.11,4,24.45,24,42.84,32,50.65,48,7.8,16,12.17,36.73,42.98,28.37,30.82-8.37,47.54-14.37,59.18-10.37s124.7-76.23,142.17-80.11c17.47-3.89,55.08-72.13,101.26-45.13s74.07,0,96.13,0,33.73-27,60.9-21c27.17,6,66.11,35.67,75.14,35.67s30.04-28.75,75.04-28.75v1610.92H0V50.1Z"/>
  </g>
</svg>